<svg width="39" height="25" viewBox="0 0 39 25" fill="none" xmlns="http://www.w3.org/2000/svg">
<path d="M35.267 7.37719H35.2525C34.522 7.37719 33.817 7.39212 33.136 7.41889C32.9222 3.29215 29.497 0 25.3181 0H12.8252C8.65507 0 5.23558 3.27766 5.00901 7.39248C4.58931 7.38239 4.16128 7.37668 3.72319 7.37668H3.7087C2.31926 7.37668 1.18921 8.50718 1.18921 9.89617V19.0873C1.18921 19.4223 1.2555 19.7419 1.37403 20.0347C1.36701 20.0764 1.36218 20.1199 1.36218 20.1638V24.1187C1.36218 24.5327 1.69758 24.8681 2.11157 24.8681H7.24227C7.65626 24.8681 7.99167 24.5327 7.99167 24.1187L7.99211 21.6068H15.209L17.9454 20.184H20.6858L23.6601 21.6068H30.9828V24.1179C30.9828 24.5318 31.3182 24.8672 31.7322 24.8672H36.8629C37.2769 24.8672 37.6123 24.5318 37.6123 24.1179V20.1629C37.6123 20.119 37.6079 20.0759 37.6004 20.0338C37.7194 19.741 37.7852 19.4214 37.7852 19.0864L37.7857 9.89617C37.7866 8.50718 36.6569 7.37719 35.267 7.37719ZM12.8255 1.49923H25.3185C28.6975 1.49923 31.4668 4.16101 31.6393 7.49789C29.1708 7.66164 27.0165 7.96545 25.0436 8.24377C22.946 8.53967 21.1351 8.79429 19.4887 8.79429C17.8473 8.79429 16.0415 8.54027 13.9521 8.24634L13.9339 8.24377C11.7423 7.93471 9.32826 7.59448 6.50802 7.44872C6.70426 4.1351 9.46268 1.49923 12.8255 1.49923ZM6.49319 23.3684H2.86128V21.4601C3.12645 21.5545 3.41136 21.6067 3.70769 21.6067H6.49276L6.49319 23.3684ZM21.026 18.6851H17.5788L14.8424 20.1079L3.70823 20.1084C3.14542 20.1084 2.68797 19.6509 2.68797 19.0881V9.89655C2.68797 9.33374 3.1463 8.87629 3.70867 8.87629H3.72316C7.68301 8.87629 10.8922 9.3289 13.7238 9.72841L13.7351 9.72999C15.8832 10.0327 17.7399 10.2943 19.488 10.2943C21.2355 10.2943 23.09 10.033 25.2368 9.73058L25.2523 9.72841L25.2659 9.72649C28.0941 9.32789 31.2985 8.87629 35.2529 8.87629H35.2674C35.8302 8.87629 36.2881 9.33461 36.2881 9.89655V19.0877C36.2881 19.6505 35.8298 20.1079 35.2678 20.1079L23.9999 20.1084L21.026 18.6851ZM32.4827 23.3684V21.6071H35.2678C35.565 21.6071 35.8495 21.5549 36.1142 21.4605V23.3688L32.4827 23.3684Z" fill="#3C4D69"/>
<path d="M35.267 7.37719H35.2525C34.522 7.37719 33.817 7.39212 33.136 7.41889C32.9222 3.29215 29.497 0 25.3181 0H12.8252C8.65507 0 5.23558 3.27766 5.00901 7.39248C4.58931 7.38239 4.16128 7.37668 3.72319 7.37668H3.7087C2.31926 7.37668 1.18921 8.50718 1.18921 9.89617V19.0873C1.18921 19.4223 1.2555 19.7419 1.37403 20.0347C1.36701 20.0764 1.36218 20.1199 1.36218 20.1638V24.1187C1.36218 24.5327 1.69758 24.8681 2.11157 24.8681H7.24227C7.65626 24.8681 7.99167 24.5327 7.99167 24.1187L7.99211 21.6068H15.209L17.9454 20.184H20.6858L23.6601 21.6068H30.9828V24.1179C30.9828 24.5318 31.3182 24.8672 31.7322 24.8672H36.8629C37.2769 24.8672 37.6123 24.5318 37.6123 24.1179V20.1629C37.6123 20.119 37.6079 20.0759 37.6004 20.0338C37.7194 19.741 37.7852 19.4214 37.7852 19.0864L37.7857 9.89617C37.7866 8.50718 36.6569 7.37719 35.267 7.37719ZM12.8255 1.49923H25.3185C28.6975 1.49923 31.4668 4.16101 31.6393 7.49789C29.1708 7.66164 27.0165 7.96545 25.0436 8.24377C22.946 8.53967 21.1351 8.79429 19.4887 8.79429C17.8473 8.79429 16.0415 8.54027 13.9521 8.24634L13.9339 8.24377C11.7423 7.93471 9.32826 7.59448 6.50802 7.44872C6.70426 4.1351 9.46268 1.49923 12.8255 1.49923ZM6.49319 23.3684H2.86128V21.4601C3.12645 21.5545 3.41136 21.6067 3.70769 21.6067H6.49276L6.49319 23.3684ZM21.026 18.6851H17.5788L14.8424 20.1079L3.70823 20.1084C3.14542 20.1084 2.68797 19.6509 2.68797 19.0881V9.89655C2.68797 9.33374 3.1463 8.87629 3.70867 8.87629H3.72316C7.68301 8.87629 10.8922 9.3289 13.7238 9.72841L13.7351 9.72999C15.8832 10.0327 17.7399 10.2943 19.488 10.2943C21.2355 10.2943 23.09 10.033 25.2368 9.73058L25.2523 9.72841L25.2659 9.72649C28.0941 9.32789 31.2985 8.87629 35.2529 8.87629H35.2674C35.8302 8.87629 36.2881 9.33461 36.2881 9.89655V19.0877C36.2881 19.6505 35.8298 20.1079 35.2678 20.1079L23.9999 20.1084L21.026 18.6851ZM32.4827 23.3684V21.6071H35.2678C35.565 21.6071 35.8495 21.5549 36.1142 21.4605V23.3688L32.4827 23.3684Z" stroke="#3C4D69"/>
<path d="M38.2259 4.23511H35.1327C34.7187 4.23511 34.3833 4.57052 34.3833 4.9845C34.3833 5.39849 34.7187 5.7339 35.1327 5.7339H38.2259C38.6399 5.7339 38.9753 5.39849 38.9753 4.9845C38.9753 4.57052 38.6408 4.23511 38.2259 4.23511Z" fill="#3C4D69"/>
<path d="M38.2259 4.23511H35.1327C34.7187 4.23511 34.3833 4.57052 34.3833 4.9845C34.3833 5.39849 34.7187 5.7339 35.1327 5.7339H38.2259C38.6399 5.7339 38.9753 5.39849 38.9753 4.9845C38.9753 4.57052 38.6408 4.23511 38.2259 4.23511Z" stroke="#3C4D69"/>
<path d="M4.59202 4.98475C4.59202 4.57076 4.25662 4.23535 3.84263 4.23535H0.749397C0.335408 4.23535 0 4.57076 0 4.98475C0 5.39874 0.335408 5.73415 0.749397 5.73415H3.84263C4.25574 5.73415 4.59202 5.39874 4.59202 4.98475Z" fill="#3C4D69"/>
<path d="M4.59202 4.98475C4.59202 4.57076 4.25662 4.23535 3.84263 4.23535H0.749397C0.335408 4.23535 0 4.57076 0 4.98475C0 5.39874 0.335408 5.73415 0.749397 5.73415H3.84263C4.25574 5.73415 4.59202 5.39874 4.59202 4.98475Z" stroke="#3C4D69"/>
<path d="M5.3896 15.0923C5.77462 15.2899 6.27069 15.3785 6.9964 15.3785H9.03735C9.76303 15.3785 10.2582 15.2903 10.6441 15.0923C11.0393 14.889 11.5116 14.4623 11.5116 13.5795V13.342C11.5116 12.3691 10.1476 11.8818 9.12207 11.6C8.16155 11.3363 7.2161 11.1947 7.08894 11.1757C7.08231 11.1747 7.0779 11.174 7.07584 11.1737L7.03632 11.168H6.99681C5.54061 11.168 4.52295 12.0618 4.52295 13.342V13.5791C4.52207 14.4623 4.99357 14.889 5.38955 15.0923L5.3896 15.0923ZM5.64643 13.342C5.64643 12.3911 6.66538 12.2998 6.95731 12.2928C7.13423 12.3191 7.86343 12.435 8.62907 12.6321C10.0286 12.9925 10.3347 13.3095 10.3865 13.3762V13.5791C10.3865 13.8951 10.3865 14.2538 9.03692 14.2538H6.99597C5.64643 14.2538 5.64643 13.8956 5.64643 13.5791V13.342Z" fill="#3C4D69"/>
<path d="M5.3896 15.0923C5.77462 15.2899 6.27069 15.3785 6.9964 15.3785H9.03735C9.76303 15.3785 10.2582 15.2903 10.6441 15.0923C11.0393 14.889 11.5116 14.4623 11.5116 13.5795V13.342C11.5116 12.3691 10.1476 11.8818 9.12207 11.6C8.16155 11.3363 7.2161 11.1947 7.08894 11.1757C7.08231 11.1747 7.0779 11.174 7.07584 11.1737L7.03632 11.168H6.99681C5.54061 11.168 4.52295 12.0618 4.52295 13.342V13.5791C4.52207 14.4623 4.99357 14.889 5.38955 15.0923L5.3896 15.0923ZM5.64643 13.342C5.64643 12.3911 6.66538 12.2998 6.95731 12.2928C7.13423 12.3191 7.86343 12.435 8.62907 12.6321C10.0286 12.9925 10.3347 13.3095 10.3865 13.3762V13.5791C10.3865 13.8951 10.3865 14.2538 9.03692 14.2538H6.99597C5.64643 14.2538 5.64643 13.8956 5.64643 13.5791V13.342Z" stroke="#3C4D69"/>
<path d="M28.332 15.0923C28.7179 15.2899 29.2131 15.3786 29.9388 15.3786H31.9797C32.7054 15.3786 33.2006 15.2903 33.5865 15.0923C33.9825 14.8891 34.454 14.4623 34.454 13.5795V13.342C34.454 12.0618 33.4368 11.168 31.9802 11.168H31.9406L31.9011 11.1737C31.9003 11.1738 31.899 11.174 31.8973 11.1742C31.8181 11.1858 30.8449 11.3278 29.8549 11.6C28.8289 11.8818 27.4653 12.3691 27.4653 13.342V13.579C27.4649 14.4623 27.9368 14.889 28.3319 15.0923L28.332 15.0923ZM28.5897 13.3766C28.6406 13.3103 28.9457 12.9947 30.3383 12.6347C31.1044 12.4371 31.8406 12.3199 32.0179 12.2936C32.3099 12.2997 33.3288 12.391 33.3288 13.3428V13.5799C33.3288 13.896 33.3288 14.2546 31.9793 14.2546H29.9383C28.5888 14.2546 28.5888 13.8964 28.5888 13.5799V13.3766L28.5897 13.3766Z" fill="#3C4D69"/>
<path d="M28.332 15.0923C28.7179 15.2899 29.2131 15.3786 29.9388 15.3786H31.9797C32.7054 15.3786 33.2006 15.2903 33.5865 15.0923C33.9825 14.8891 34.454 14.4623 34.454 13.5795V13.342C34.454 12.0618 33.4368 11.168 31.9802 11.168H31.9406L31.9011 11.1737C31.9003 11.1738 31.899 11.174 31.8973 11.1742C31.8181 11.1858 30.8449 11.3278 29.8549 11.6C28.8289 11.8818 27.4653 12.3691 27.4653 13.342V13.579C27.4649 14.4623 27.9368 14.889 28.3319 15.0923L28.332 15.0923ZM28.5897 13.3766C28.6406 13.3103 28.9457 12.9947 30.3383 12.6347C31.1044 12.4371 31.8406 12.3199 32.0179 12.2936C32.3099 12.2997 33.3288 12.391 33.3288 13.3428V13.5799C33.3288 13.896 33.3288 14.2546 31.9793 14.2546H29.9383C28.5888 14.2546 28.5888 13.8964 28.5888 13.5799V13.3766L28.5897 13.3766Z" stroke="#3C4D69"/>
</svg>
