<svg width="39" height="33" viewBox="0 0 39 33" fill="none" xmlns="http://www.w3.org/2000/svg">
<path d="M39 10.5894L37.4587 10.1757V10.1764L36.5666 9.93799L34.6208 11.0606L37.0464 11.7114L35.3993 17.8534L26.8326 15.5577L24.8867 16.681L34.9891 19.3883L35.2269 19.4521L36.5248 19.7999V19.7992L36.5305 19.8013L39 10.5894Z" fill="#3C4D69"/>
<path d="M39 10.5894L37.4587 10.1757V10.1764L36.5666 9.93799L34.6208 11.0606L37.0464 11.7114L35.3993 17.8534L26.8326 15.5577L24.8867 16.681L34.9891 19.3883L35.2269 19.4521L36.5248 19.7999V19.7992L36.5305 19.8013L39 10.5894Z" stroke="#3C4D69"/>
<path d="M36.3295 8.2312L36.3309 8.22837L34.1531 7.64505L7.16252 0.413714V0.413005L5.62116 0V0.000709644L5.61832 0L5.20816 1.53566H5.21028L2.7414 10.7483L2.73927 10.7476L2.3291 12.2846L18.5785 16.6391L20.7607 17.2231L21.542 16.7711L34.3873 9.35388L36.3295 8.2312ZM20.5258 15.5129L4.28346 11.1606L6.75234 1.948L32.2078 8.7684L20.5258 15.5129Z" fill="#3C4D69"/>
<path d="M36.3295 8.2312L36.3309 8.22837L34.1531 7.64505L7.16252 0.413714V0.413005L5.62116 0V0.000709644L5.61832 0L5.20816 1.53566H5.21028L2.7414 10.7483L2.73927 10.7476L2.3291 12.2846L18.5785 16.6391L20.7607 17.2231L21.542 16.7711L34.3873 9.35388L36.3295 8.2312ZM20.5258 15.5129L4.28346 11.1606L6.75234 1.948L32.2078 8.7684L20.5258 15.5129Z" stroke="#3C4D69"/>
<path d="M14.3057 26.952H1.596V22.8603H0V32.5192H1.596V28.5481H15.8932V28.5432H15.9024V17.6054L14.3057 17.1782L14.3057 26.952Z" fill="#3C4D69"/>
<path d="M14.3057 26.952H1.596V22.8603H0V32.5192H1.596V28.5481H15.8932V28.5432H15.9024V17.6054L14.3057 17.1782L14.3057 26.952Z" stroke="#3C4D69"/>
</svg>
