<svg width="28" height="30" viewBox="0 0 28 30" fill="none" xmlns="http://www.w3.org/2000/svg">
<path d="M1.50215 12.1568H4.75336C5.58143 7.6368 8.35822 3.76386 12.2963 1.93534C13.7911 1.24122 15.3582 0.886403 16.9171 0.852684L16.9173 0.852505L16.9769 0.851528C20.4501 0.794588 23.8721 2.33013 26.3603 5.24573C26.4654 5.36333 26.5226 5.51949 26.5219 5.67906M1.50215 12.1568L26.3719 5.67841M1.50215 12.1568H1.50105H1.50215ZM26.5219 5.67906L26.3719 5.67841M26.5219 5.67906C26.5219 5.67896 26.5219 5.67885 26.5219 5.67874L26.3719 5.67841M26.5219 5.67906C26.5215 5.839 26.463 5.99468 26.3548 6.10916L26.3544 6.10953C26.2452 6.22425 26.0947 6.28747 25.9369 6.27904L25.9366 6.27902C25.8043 6.27164 25.6815 6.21483 25.5863 6.12355M26.3719 5.67841C26.3716 5.80292 26.3261 5.92119 26.2458 6.0061C26.1652 6.09074 26.0567 6.13522 25.9449 6.12926C25.8332 6.12301 25.7274 6.06687 25.6517 5.97355M25.5863 6.12355H25.6514H25.6517V5.97355M25.5863 6.12355H25.5822L25.5373 6.07091C22.2401 2.20677 17.165 1.01329 12.7549 3.06086C9.24041 4.6926 6.72463 8.12136 5.90866 12.1567M25.5863 6.12355C25.5691 6.10706 25.5528 6.08945 25.5374 6.0708C25.5367 6.06988 25.5359 6.06896 25.5352 6.06803L25.6462 5.978L25.6514 5.97377L25.6517 5.97355M25.6517 5.97355H25.6514C22.3132 2.06134 17.1666 0.847175 12.6917 2.92481C9.1202 4.58304 6.57356 8.06752 5.75565 12.1567M1.10777 18.1249C1.11493 18.1167 1.12241 18.1087 1.13021 18.101C1.21308 18.0189 1.32571 17.9734 1.44243 17.9746C1.44252 17.9746 1.44261 17.9746 1.44271 17.9746V17.9743M1.10777 18.1249L26.6955 24.1157L26.8145 24.207C26.8144 24.2072 26.8143 24.2073 26.8142 24.2075C23.4063 28.6476 17.8892 30.2964 12.9347 28.3315C9.0453 26.789 6.15216 23.2665 5.02072 18.9997M1.10777 18.1249H1.08057L1.11739 18.088M1.10777 18.1249L1.11739 18.088M1.44271 17.9743L1.44298 17.9746L1.44297 17.9749H1.44325H1.65484L1.80097 17.8287L1.46724 17.8249H1.44471H1.44271V17.9743ZM1.44271 17.9743L1.33691 17.8685L1.33664 17.8688L1.11741 18.088M1.11741 18.088L1.02484 17.9942C1.02478 17.9943 1.02472 17.9943 1.02467 17.9944M1.11741 18.088L1.11739 18.088M1.11741 18.088L1.12992 18.1007L1.11739 18.088M1.02467 17.9944C0.91301 18.1047 0.85 18.2551 0.85 18.4121C0.85 18.5694 0.912972 18.7198 1.02466 18.8301M1.02467 17.9944L1.11739 18.088M1.02467 17.9944L1.11739 18.088M1.02466 18.8301C1.02472 18.8302 1.02478 18.8303 1.02484 18.8303L1.12992 18.7238L1.02466 18.8301ZM1.02466 18.8301C1.13621 18.9406 1.28744 19.0013 1.44383 18.9997M1.44383 18.9997H1.44298V18.8497L1.44471 18.9997C1.44442 18.9997 1.44413 18.9997 1.44383 18.9997ZM1.44383 18.9997H5.02072M5.02072 18.9997C5.01078 18.9622 5.00097 18.9246 4.9913 18.887L5.13658 18.8497V18.9997H5.02072ZM26.7921 23.7802L26.9417 23.7689C26.9417 23.7688 26.9417 23.7687 26.9417 23.7686M26.7921 23.7802L26.7492 23.354C26.8621 23.4618 26.9297 23.6112 26.9417 23.7686M26.7921 23.7802L26.9417 23.7686M26.7921 23.7802L26.9417 23.7686M5.90866 12.1567C5.89856 12.2066 5.88873 12.2566 5.87916 12.3067H5.72648C5.73595 12.2566 5.74567 12.2066 5.75565 12.1567M5.90866 12.1567H5.75565M5.90866 12.1567H5.75565M19.484 18.8497L19.4823 18.9997C19.4826 18.9997 19.4829 18.9997 19.4832 18.9997C19.6397 19.0013 19.7905 18.9405 19.9022 18.8303C20.0141 18.7198 20.0767 18.5693 20.0767 18.4122C20.0767 18.2553 20.0141 18.1047 19.9022 17.9943C19.7907 17.8842 19.6399 17.823 19.4832 17.8246C19.4829 17.8246 19.4826 17.8246 19.4823 17.8246L19.484 17.9746V18.8497ZM5.78475 17.9746L5.9316 17.944C5.92332 17.9043 5.9152 17.8645 5.90722 17.8246H5.78475V17.9746ZM21.5681 12.1567H21.567C21.5666 12.1567 21.5661 12.1567 21.5657 12.1567L21.5681 12.3067V12.1567ZM21.4181 13.3298L21.5475 13.3316H21.566H21.5681V13.1818V13.1816H21.4181V13.1818V13.3298ZM21.5803 13.1818H21.7181V13.1816V13.1576C21.6774 13.1718 21.6345 13.1799 21.5908 13.1816C21.5873 13.1817 21.5838 13.1818 21.5803 13.1818ZM5.59106 13.3316H5.7239C5.72904 13.2878 5.73437 13.244 5.73988 13.2003L5.59106 13.1816V13.3316ZM6.03939 18.9997H6.1955C6.18103 18.9498 6.16682 18.8998 6.15288 18.8497H5.99725C6.01103 18.8998 6.02508 18.9498 6.03939 18.9997ZM25.9407 23.4159C25.9406 23.416 25.9405 23.4162 25.9404 23.4163L26.0597 23.5073L25.9407 23.4159ZM4.7592 17.8249C4.76845 17.8749 4.77792 17.9249 4.78759 17.9749H4.9404C4.93064 17.9249 4.9211 17.8749 4.91176 17.8249H4.7592ZM4.59816 13.1819H4.74916C4.74334 13.2318 4.73775 13.2818 4.7324 13.3319H4.58156C4.58686 13.2818 4.59239 13.2318 4.59816 13.1819ZM1.50105 13.3319H1.50202C1.50239 13.3319 1.50276 13.3319 1.50313 13.3319L1.50105 13.1819V13.3319Z" fill="#3C4D69" stroke="#3C4D69" stroke-width="0.3"/>
</svg>
