<svg width="33" height="33" viewBox="0 0 33 33" fill="none" xmlns="http://www.w3.org/2000/svg">
<path d="M16.0695 6.6851L15.8697 6.68525V6.8851V16.7553V16.8724L15.9717 16.9297L16.1868 17.0506L16.1868 17.0506L23.07 20.9225L23.2432 21.0199L23.3418 20.8474L23.7718 20.0945L23.8716 19.9196L23.6961 19.821L17.1303 16.1276V6.88444V6.68429L16.9302 6.68444L16.0695 6.6851ZM16.5 0.8C7.84177 0.8 0.8 7.84177 0.8 16.5C0.8 25.1582 7.84177 32.2 16.5 32.2C25.1582 32.2 32.2 25.1582 32.2 16.5C32.2 7.84177 25.1582 0.8 16.5 0.8ZM16.5 2.08704C24.4726 2.08704 30.9135 8.52752 30.9135 16.5005C30.9135 24.4736 24.473 30.914 16.5 30.914C8.52698 30.914 2.08651 24.4736 2.08651 16.5005C2.08651 8.52752 8.52698 2.08704 16.5 2.08704Z" fill="#3C4D69" stroke="#3C4D69" stroke-width="0.4"/>
</svg>
