<svg width="24" height="35" viewBox="0 0 24 35" fill="none" xmlns="http://www.w3.org/2000/svg">
<path d="M1.98944 18.7879L10.2172 18.7879L10.2178 18.7879M1.98944 18.7879L10.4612 19.1068C10.4025 19.0316 10.3128 18.9877 10.2178 18.9879V18.7879M1.98944 18.7879L7.03425 1.82379H18.3096L13.3258 11.8797L13.3256 11.8801C13.2483 12.037 13.2556 12.2235 13.3471 12.3739L1.98944 18.7879ZM10.2178 18.7879C10.3748 18.7877 10.5227 18.8603 10.6189 18.9839L10.2178 18.7879ZM6.53803 0.811262L6.51482 0.816286L6.49481 0.825941C6.48073 0.830644 6.46669 0.83604 6.45273 0.842193C6.4251 0.853102 6.39742 0.866846 6.37075 0.883773C6.355 0.893108 6.34053 0.902992 6.32712 0.913143L6.29827 0.93497L6.22962 0.972755V1.03093C6.21971 1.04455 6.21011 1.05923 6.20108 1.07518L6.20081 1.07503L6.1959 1.08494C6.17689 1.12329 6.16215 1.16487 6.15327 1.20881C6.1498 1.22089 6.14687 1.23271 6.14438 1.24425L0.819657 19.1513L0.819619 19.1513L0.818569 19.1551C0.776734 19.3067 0.80634 19.4695 0.899802 19.5966L0.90001 19.5969C0.99364 19.7237 1.14109 19.8006 1.2992 19.8034L1.2992 19.8034H1.30269H9.56187L6.15434 33.5546C6.09059 33.7909 6.20308 34.0401 6.42308 34.1477L6.42338 34.1479C6.6448 34.2557 6.9108 34.1886 7.05552 33.9896C7.05577 33.9893 7.05601 33.9889 7.05626 33.9886L23.1002 12.4102L23.101 12.4091C23.2142 12.2547 23.2315 12.0496 23.1468 11.8783L23.1466 11.8779C23.0614 11.7063 22.8874 11.5963 22.6953 11.595H22.6938H14.6016L19.5851 1.5485C19.6646 1.3886 19.6551 1.19881 19.5604 1.04767L19.5602 1.04744C19.4658 0.897293 19.3 0.806319 19.122 0.809168H6.70708C6.70444 0.809099 6.70169 0.80908 6.69883 0.809123L6.66981 0.782738L6.56915 0.804526L6.53803 0.811262Z" fill="#EA142E" stroke="#EA142E" stroke-width="0.4"/>
</svg>
