<svg width="24" height="34" viewBox="0 0 24 34" fill="none" xmlns="http://www.w3.org/2000/svg">
<path d="M12.0846 0.856188L12.072 0.854048H12.0696C11.8957 0.83185 11.7164 0.901965 11.6024 1.03594C8.83057 4.12867 6.1447 7.51423 4.15109 10.9748C2.1579 14.4347 0.85 17.9809 0.85 21.3917C0.85 28.1927 5.81676 33.7745 12 33.7745C18.1832 33.7745 23.15 28.1926 23.15 21.3917C23.15 17.981 21.8421 14.4348 19.8489 10.975C17.8553 7.51458 15.1696 4.1291 12.3978 1.03621C12.3183 0.941909 12.2062 0.87695 12.0846 0.856188ZM18.826 19.9989L18.448 19.9427L18.5484 20.0681C18.4964 20.0985 18.4501 20.1371 18.4114 20.1806C18.3172 20.2867 18.2568 20.4345 18.2757 20.5906C18.3951 21.8561 18.0833 23.2974 17.4978 24.5914C16.9116 25.8868 16.0591 27.0172 15.1153 27.6694L15.1146 27.6699C14.8825 27.8321 14.8206 28.1796 14.9828 28.4121L14.9829 28.4121C15.145 28.6441 15.492 28.7061 15.7245 28.5443C16.8777 27.7474 17.8489 26.4772 18.4968 25.0398C19.1448 23.6021 19.4746 21.9855 19.3327 20.4887L19.3327 20.4887L19.3323 20.485C19.3174 20.3609 19.269 20.2468 19.1775 20.1583C19.0869 20.0707 18.966 20.0197 18.826 19.9989ZM1.90867 21.3915C1.90867 18.3181 3.11101 15.0087 4.99306 11.7034C6.8479 8.44598 9.3561 5.20448 12.0001 2.21396C14.644 5.20412 17.1522 8.44547 19.007 11.7029C20.8891 15.0082 22.0914 18.3179 22.0914 21.3915C22.0914 27.6726 17.5412 32.6919 12.0001 32.6919C6.45893 32.6919 1.90867 27.6727 1.90867 21.3915Z" fill="#3C4D69" stroke="#3C4D69" stroke-width="0.3"/>
</svg>
