<svg width="31" height="37" viewBox="0 0 31 37" fill="none" xmlns="http://www.w3.org/2000/svg">
<path d="M29.8952 6.34563C29.7871 6.2375 29.6411 6.17596 29.4886 6.17377L29.4886 6.1737H29.48C23.8608 6.1737 19.5454 4.54069 15.9608 1.06631L15.911 1.01758C15.6827 0.794185 15.3177 0.794141 15.0894 1.01745C11.4951 4.52561 7.16535 6.1737 1.51991 6.1737C1.19571 6.1737 0.932912 6.4365 0.932912 6.7607C0.932912 7.67882 0.932888 8.63627 0.88949 9.59345L0.889436 9.59344L0.889362 9.59745L0.889086 9.61228C0.801941 14.2997 0.703441 19.5981 2.47153 24.3642C4.24623 29.1482 7.89609 33.3847 15.2759 35.9545L15.2998 35.9628H15.3252H15.6312H15.6565L15.6804 35.9545C23.0815 33.3849 26.7424 29.1484 28.5228 24.3644C30.2967 19.5975 30.1981 14.2983 30.1109 9.61042L30.1107 9.60024C30.1107 9.59976 30.1107 9.59927 30.1107 9.59879C30.1107 9.11672 30.0998 8.63494 30.0889 8.16056L30.0885 8.14489C30.0777 7.67482 30.0671 7.21226 30.0671 6.7607C30.0671 6.60514 30.0053 6.45575 29.8952 6.34563ZM27.4602 23.7747C25.809 28.302 22.4153 32.3244 15.4998 34.7799C8.58417 32.3243 5.19052 28.3127 3.53938 23.791C1.87957 19.2455 1.97559 14.1739 2.06307 9.60314H2.06309V9.60027C2.06309 9.18756 2.07393 8.78545 2.08483 8.38657L2.08529 8.36952C2.09467 8.02646 2.10399 7.68556 2.10619 7.34467C7.56539 7.23164 11.8542 5.63158 15.4998 2.29001C19.1445 5.6315 23.433 7.27425 28.893 7.34581C28.8932 8.08199 28.8957 8.82441 28.9367 9.60562C29.0241 14.1538 29.1197 19.2245 27.4602 23.7747Z" fill="#3C4D69" stroke="#3C4D69" stroke-width="0.3"/>
<path d="M9.01259 16.3501C8.89192 16.4704 8.83032 16.6371 8.84216 16.8065L8.84216 16.8065C8.85368 16.9709 8.93408 17.123 9.06327 17.2251L13.1222 21.7156V21.7193L13.165 21.763C13.2733 21.8738 13.4211 21.9367 13.5755 21.9392L13.5755 21.9392L13.5803 21.9392C13.7337 21.9367 13.8806 21.8745 13.9889 21.7652L22.0248 14.1224C22.0249 14.1223 22.0251 14.1221 22.0253 14.1219C22.2663 13.8963 22.2792 13.5184 22.054 13.2769L22.0539 13.2768C21.8283 13.0354 21.45 13.0223 21.2084 13.2476L21.1609 13.292L21.1608 13.3364L13.5862 20.4829L9.89251 16.4068C9.7903 16.2745 9.63656 16.1917 9.4695 16.1796L9.46912 16.1795C9.29943 16.1677 9.13293 16.2298 9.01259 16.3501ZM9.01259 16.3501C9.01262 16.3501 9.01265 16.35 9.01268 16.35L9.11857 16.4562L9.01251 16.3502C9.01254 16.3501 9.01257 16.3501 9.01259 16.3501Z" fill="#3C4D69" stroke="#3C4D69" stroke-width="0.3"/>
</svg>
