<svg width="60" height="60" viewBox="0 0 60 60" fill="none" xmlns="http://www.w3.org/2000/svg">
<path d="M29.3644 42.0265L29.3644 42.0265L29.3676 42.0316C29.4741 42.1982 29.6584 42.3 29.8573 42.3C30.0561 42.3 30.2404 42.1982 30.3469 42.0316L30.3469 42.0316L30.3501 42.0265L36.5236 31.9244L36.2676 31.7679L36.5236 31.9244C37.3142 30.6306 38.0145 28.5124 38.0145 26.8572C38.0145 22.3555 34.359 18.7 29.8573 18.7H29.8572C25.3555 18.7 21.7 22.3555 21.7 26.8572C21.7 28.5124 22.4003 30.6307 23.1909 31.9244C23.1909 31.9244 23.1909 31.9244 23.1909 31.9244L29.3644 42.0265ZM35.5379 31.3222L35.5379 31.3222L29.8569 40.6195L24.1759 31.3222C23.8446 30.7798 23.5139 30.0058 23.2663 29.1879C23.0184 28.3691 22.8607 27.5298 22.8607 26.8573C22.8607 22.9902 25.9896 19.8614 29.8567 19.8614H29.9108C33.7532 19.8901 36.8531 23.0079 36.8531 26.8571C36.8531 27.5296 36.6955 28.3689 36.4476 29.1877C36.2 30.0056 35.8694 30.7797 35.5379 31.3222ZM29.8572 22.9092C27.6801 22.9092 25.9092 24.6801 25.9092 26.8572C25.9092 29.0344 27.6801 30.8053 29.8572 30.8053C32.0343 30.8053 33.8052 29.0344 33.8052 26.8572C33.8052 24.6801 32.0343 22.9092 29.8572 22.9092ZM29.8572 24.0704C31.3995 24.0704 32.644 25.3147 32.644 26.8572C32.644 28.3996 31.3997 29.6439 29.8572 29.6439C28.3148 29.6439 27.0703 28.3996 27.0703 26.8572C27.0703 25.3149 28.3146 24.0704 29.8572 24.0704Z" fill="white" stroke="white" stroke-width="0.6"/>
<circle cx="30" cy="30" r="29.5" stroke="white" stroke-opacity="0.1"/>
</svg>
