<svg width="60" height="60" viewBox="0 0 60 60" fill="none" xmlns="http://www.w3.org/2000/svg">
<rect width="59.2417" height="59.7395" fill="#F6F6F6"/>
<path d="M43.4983 21.0285L34.8666 12.6847C34.4119 12.245 33.8051 12 33.173 12H17.4369C16.091 12 15 13.0907 15 14.4366V45.3026C15 46.6485 16.091 47.7395 17.4369 47.7395H41.8048C43.1507 47.7395 44.2417 46.6485 44.2417 45.3026V22.7812C44.2417 22.12 43.9734 21.4879 43.4983 21.029V21.0285ZM34.9703 15.0439L41.0639 20.9345H34.9703V15.0439ZM42.6172 45.3021C42.6172 45.7497 42.2526 46.1143 41.805 46.1143H17.4371C16.9895 46.1143 16.625 45.7497 16.625 45.3021V14.4362C16.625 13.9886 16.9896 13.624 17.4371 13.624H33.1733C33.2333 13.624 33.2886 13.6452 33.3464 13.6574V20.9344C33.3464 21.8304 34.075 22.5588 34.9707 22.5588H42.5719C42.5931 22.631 42.6175 22.7035 42.6175 22.7806L42.6172 45.3021Z" fill="#EA142E"/>
<path d="M23.7929 28.9238H21.0498V34.7427H22.3462V33.0962H23.7926C25.2718 33.08 26.0208 32.1743 26.0208 31.0095C26.0211 29.8879 25.2811 28.9238 23.7929 28.9238ZM23.7929 31.9089H22.3465V30.1545H23.7929C24.4077 30.1545 24.7238 30.5704 24.7238 31.0358C24.7238 31.501 24.4167 31.9089 23.7929 31.9089Z" fill="#EA142E"/>
<path d="M29.6625 28.9238H27.2769V34.7427H29.6625C31.6988 34.7427 32.5558 33.3132 32.5558 31.7916C32.555 30.2712 31.6658 28.9238 29.6625 28.9238ZM29.6625 33.5455H28.5571V30.0959H29.6625C30.8761 30.0959 31.2756 30.9358 31.2756 31.7749C31.2756 32.6137 30.9266 33.5455 29.6625 33.5455Z" fill="#EA142E"/>
<path d="M33.9524 34.7418H35.2487V32.6551H38.0089V31.4992H35.2487V30.1201H38.1916V28.9316H33.9524V34.7418Z" fill="#EA142E"/>
</svg>
