<svg width="105" height="69" viewBox="0 0 105 69" fill="none" xmlns="http://www.w3.org/2000/svg">
<path d="M1 0.8L0.8 0.799998V1V62.7264V62.9264H1H2.57729V68.0601V68.2601H2.77729H9.8334H10.0334V68.0601V62.9264H95.4716V68.0601V68.2601H95.6716H102.727H102.927V68.0601V62.9265L104.506 62.9273L104.706 62.9274V62.7273V1.00086V0.800857L104.506 0.800856L1 0.8ZM8.35582 66.5812H4.25565V62.9251H8.35661L8.35582 66.5812ZM101.248 66.5812H97.1485V62.9251H101.248V66.5812ZM103.027 61.2475H2.4756V2.47755H103.025L103.027 61.2475Z" fill="#EA142E" stroke="#EA142E" stroke-width="0.4"/>
<path d="M15.4448 12.5503H15.2448V12.7503V50.9739V51.1739H15.4448H16.7224H16.9224V50.9739V12.7503V12.5503H16.7224H15.4448Z" fill="#EA142E" stroke="#EA142E" stroke-width="0.4"/>
<path d="M30.113 12.5503H29.913V12.7503V50.9739V51.1739H30.113H31.3906H31.5906V50.9739V12.7503V12.5503H31.3906H30.113Z" fill="#EA142E" stroke="#EA142E" stroke-width="0.4"/>
<path d="M44.781 12.5503H44.581V12.7503V50.9739V51.1739H44.781H46.0586H46.2586V50.9739V12.7503V12.5503H46.0586H44.781Z" fill="#EA142E" stroke="#EA142E" stroke-width="0.4"/>
<path d="M59.447 12.5503H59.247V12.7503V50.9739V51.1739H59.447H60.7246H60.9246V50.9739V12.7503V12.5503H60.7246H59.447Z" fill="#EA142E" stroke="#EA142E" stroke-width="0.4"/>
<path d="M74.1152 12.5503H73.9152V12.7503V50.9739V51.1739H74.1152H75.3928H75.5928V50.9739V12.7503V12.5503H75.3928H74.1152Z" fill="#EA142E" stroke="#EA142E" stroke-width="0.4"/>
<path d="M88.7812 12.5503H88.5812V12.7503V50.9739V51.1739H88.7812H90.0588H90.2588V50.9739V12.7503V12.5503H90.0588H88.7812Z" fill="#EA142E" stroke="#EA142E" stroke-width="0.4"/>
</svg>
