<svg width="224" height="152" viewBox="0 0 224 152" fill="none" xmlns="http://www.w3.org/2000/svg">
<path d="M61 0.8L60.8 0.799998V1V62.7264V62.9264H61H62.5773V68.0601V68.2601H62.7773H69.8334H70.0334V68.0601V62.9264H155.472V68.0601V68.2601H155.672H162.727H162.927V68.0601V62.9265L164.506 62.9273L164.706 62.9274V62.7273V1.00086V0.800857L164.506 0.800856L61 0.8ZM68.3558 66.5812H64.2557V62.9251H68.3566L68.3558 66.5812ZM161.248 66.5812H157.148V62.9251H161.248V66.5812ZM163.027 61.2475H62.4756V2.47755H163.025L163.027 61.2475Z" fill="#EA142E" stroke="#EA142E" stroke-width="0.4"/>
<path d="M75.4448 12.5503H75.2448V12.7503V50.9739V51.1739H75.4448H76.7224H76.9224V50.9739V12.7503V12.5503H76.7224H75.4448Z" fill="#EA142E" stroke="#EA142E" stroke-width="0.4"/>
<path d="M90.113 12.5503H89.913V12.7503V50.9739V51.1739H90.113H91.3906H91.5906V50.9739V12.7503V12.5503H91.3906H90.113Z" fill="#EA142E" stroke="#EA142E" stroke-width="0.4"/>
<path d="M104.781 12.5503H104.581V12.7503V50.9739V51.1739H104.781H106.059H106.259V50.9739V12.7503V12.5503H106.059H104.781Z" fill="#EA142E" stroke="#EA142E" stroke-width="0.4"/>
<path d="M119.447 12.5503H119.247V12.7503V50.9739V51.1739H119.447H120.725H120.925V50.9739V12.7503V12.5503H120.725H119.447Z" fill="#EA142E" stroke="#EA142E" stroke-width="0.4"/>
<path d="M134.115 12.5503H133.915V12.7503V50.9739V51.1739H134.115H135.393H135.593V50.9739V12.7503V12.5503H135.393H134.115Z" fill="#EA142E" stroke="#EA142E" stroke-width="0.4"/>
<path d="M148.781 12.5503H148.581V12.7503V50.9739V51.1739H148.781H150.059H150.259V50.9739V12.7503V12.5503H150.059H148.781Z" fill="#EA142E" stroke="#EA142E" stroke-width="0.4"/>
<path d="M1 83.8L0.8 83.8V84V145.726V145.926H1H2.57729V151.06V151.26H2.77729H9.8334H10.0334V151.06V145.926H95.4716V151.06V151.26H95.6716H102.727H102.927V151.06V145.927L104.506 145.927L104.706 145.927V145.727V84.0009V83.8009L104.506 83.8009L1 83.8ZM8.35582 149.581H4.25565V145.925H8.35661L8.35582 149.581ZM101.248 149.581H97.1485V145.925H101.248V149.581ZM103.027 144.248H2.4756V85.4776H103.025L103.027 144.248Z" fill="#EA142E" stroke="#EA142E" stroke-width="0.4"/>
<path d="M15.4448 95.5503H15.2448V95.7503V133.974V134.174H15.4448H16.7224H16.9224V133.974V95.7503V95.5503H16.7224H15.4448Z" fill="#EA142E" stroke="#EA142E" stroke-width="0.4"/>
<path d="M30.113 95.5503H29.913V95.7503V133.974V134.174H30.113H31.3906H31.5906V133.974V95.7503V95.5503H31.3906H30.113Z" fill="#EA142E" stroke="#EA142E" stroke-width="0.4"/>
<path d="M44.781 95.5503H44.581V95.7503V133.974V134.174H44.781H46.0586H46.2586V133.974V95.7503V95.5503H46.0586H44.781Z" fill="#EA142E" stroke="#EA142E" stroke-width="0.4"/>
<path d="M59.447 95.5503H59.247V95.7503V133.974V134.174H59.447H60.7246H60.9246V133.974V95.7503V95.5503H60.7246H59.447Z" fill="#EA142E" stroke="#EA142E" stroke-width="0.4"/>
<path d="M74.1152 95.5503H73.9152V95.7503V133.974V134.174H74.1152H75.3928H75.5928V133.974V95.7503V95.5503H75.3928H74.1152Z" fill="#EA142E" stroke="#EA142E" stroke-width="0.4"/>
<path d="M88.7812 95.5503H88.5812V95.7503V133.974V134.174H88.7812H90.0588H90.2588V133.974V95.7503V95.5503H90.0588H88.7812Z" fill="#EA142E" stroke="#EA142E" stroke-width="0.4"/>
<path d="M120 83.8L119.8 83.8V84V145.726V145.926H120H121.577V151.06V151.26H121.777H128.833H129.033V151.06V145.926H214.472V151.06V151.26H214.672H221.727H221.927V151.06V145.927L223.506 145.927L223.706 145.927V145.727V84.0009V83.8009L223.506 83.8009L120 83.8ZM127.356 149.581H123.256V145.925H127.357L127.356 149.581ZM220.248 149.581H216.148V145.925H220.248V149.581ZM222.027 144.248H121.476V85.4776H222.025L222.027 144.248Z" fill="#EA142E" stroke="#EA142E" stroke-width="0.4"/>
<path d="M168.856 120H160.558V118.38L164.95 113.898C166.018 112.83 166.552 111.906 166.552 111.126C166.552 110.526 166.372 110.052 166.012 109.704C165.652 109.356 165.184 109.182 164.608 109.182C163.552 109.182 162.772 109.704 162.268 110.748L160.522 109.722C160.906 108.894 161.458 108.264 162.178 107.832C162.898 107.388 163.702 107.166 164.59 107.166C165.706 107.166 166.654 107.514 167.434 108.21C168.226 108.918 168.622 109.866 168.622 111.054C168.622 112.326 167.908 113.694 166.48 115.158L163.636 118.002H168.856V120ZM178.658 118.452C177.794 119.64 176.582 120.234 175.022 120.234C173.474 120.234 172.256 119.64 171.368 118.452C170.504 117.264 170.072 115.68 170.072 113.7C170.072 111.72 170.504 110.136 171.368 108.948C172.256 107.76 173.474 107.166 175.022 107.166C176.582 107.166 177.794 107.76 178.658 108.948C179.534 110.124 179.972 111.708 179.972 113.7C179.972 115.692 179.534 117.276 178.658 118.452ZM175.022 118.218C175.958 118.218 176.672 117.828 177.164 117.048C177.656 116.268 177.902 115.152 177.902 113.7C177.902 112.248 177.656 111.132 177.164 110.352C176.672 109.572 175.958 109.182 175.022 109.182C174.098 109.182 173.384 109.572 172.88 110.352C172.388 111.132 172.142 112.248 172.142 113.7C172.142 115.152 172.388 116.268 172.88 117.048C173.384 117.828 174.098 118.218 175.022 118.218Z" fill="#EA142E"/>
</svg>
