<svg width="176" height="187" viewBox="0 0 176 187" fill="none" xmlns="http://www.w3.org/2000/svg">
<path d="M1 0.8L0.8 0.799998V1V48.1545V48.3545H1H2.15772V52.2291V52.4291H2.35772H7.74808H7.94808V52.2291V48.3545H73.1223V52.2291V52.4291H73.3223H78.712H78.912V52.2291V48.3546L80.0709 48.3552L80.271 48.3553V48.1552V1.00065V0.800655L80.071 0.800654L1 0.8ZM6.57212 51.0521H3.5343V48.3535H6.5727L6.57212 51.0521ZM77.5348 51.0521H74.4977V48.3535H77.5348V51.0521ZM78.8938 46.9776H2.17447V2.17596H78.8922L78.8938 46.9776Z" fill="#EA142E" stroke="#EA142E" stroke-width="0.4"/>
<path d="M12.0347 9.77638H11.8347V9.97638V39.1764V39.3764H12.0347H13.0106H13.2106V39.1764V9.97638V9.77638H13.0106H12.0347Z" fill="#EA142E" stroke="#EA142E" stroke-width="0.4"/>
<path d="M23.2402 9.77638H23.0402V9.97638V39.1764V39.3764H23.2402H24.2162H24.4162V39.1764V9.97638V9.77638H24.2162H23.2402Z" fill="#EA142E" stroke="#EA142E" stroke-width="0.4"/>
<path d="M34.4456 9.77638H34.2456V9.97638V39.1764V39.3764H34.4456H35.4215H35.6215V39.1764V9.97638V9.77638H35.4215H34.4456Z" fill="#EA142E" stroke="#EA142E" stroke-width="0.4"/>
<path d="M45.6492 9.77638H45.4492V9.97638V39.1764V39.3764H45.6492H46.6251H46.8251V39.1764V9.97638V9.77638H46.6251H45.6492Z" fill="#EA142E" stroke="#EA142E" stroke-width="0.4"/>
<path d="M56.855 9.77638H56.655V9.97638V39.1764V39.3764H56.855H57.8309H58.0309V39.1764V9.97638V9.77638H57.8309H56.855Z" fill="#EA142E" stroke="#EA142E" stroke-width="0.4"/>
<path d="M68.0586 9.77638H67.8586V9.97638V39.1764V39.3764H68.0586H69.0346H69.2346V39.1764V9.97638V9.77638H69.0346H68.0586Z" fill="#EA142E" stroke="#EA142E" stroke-width="0.4"/>
<path d="M1 67.8L0.8 67.8V68V115.155V115.355H1H2.15772V119.229V119.429H2.35772H7.74808H7.94808V119.229V115.355H73.1223V119.229V119.429H73.3223H78.712H78.912V119.229V115.355L80.0709 115.355L80.271 115.355V115.155V68.0007V67.8007L80.071 67.8007L1 67.8ZM6.57212 118.052H3.5343V115.354H6.5727L6.57212 118.052ZM77.5348 118.052H74.4977V115.354H77.5348V118.052ZM78.8938 113.978H2.17447V69.176H78.8922L78.8938 113.978Z" fill="#EA142E" stroke="#EA142E" stroke-width="0.4"/>
<path d="M12.0347 76.7764H11.8347V76.9764V106.176V106.376H12.0347H13.0106H13.2106V106.176V76.9764V76.7764H13.0106H12.0347Z" fill="#EA142E" stroke="#EA142E" stroke-width="0.4"/>
<path d="M23.2402 76.7764H23.0402V76.9764V106.176V106.376H23.2402H24.2162H24.4162V106.176V76.9764V76.7764H24.2162H23.2402Z" fill="#EA142E" stroke="#EA142E" stroke-width="0.4"/>
<path d="M34.4456 76.7764H34.2456V76.9764V106.176V106.376H34.4456H35.4215H35.6215V106.176V76.9764V76.7764H35.4215H34.4456Z" fill="#EA142E" stroke="#EA142E" stroke-width="0.4"/>
<path d="M45.6492 76.7764H45.4492V76.9764V106.176V106.376H45.6492H46.6251H46.8251V106.176V76.9764V76.7764H46.6251H45.6492Z" fill="#EA142E" stroke="#EA142E" stroke-width="0.4"/>
<path d="M56.855 76.7764H56.655V76.9764V106.176V106.376H56.855H57.8309H58.0309V106.176V76.9764V76.7764H57.8309H56.855Z" fill="#EA142E" stroke="#EA142E" stroke-width="0.4"/>
<path d="M68.0586 76.7764H67.8586V76.9764V106.176V106.376H68.0586H69.0346H69.2346V106.176V76.9764V76.7764H69.0346H68.0586Z" fill="#EA142E" stroke="#EA142E" stroke-width="0.4"/>
<path d="M1 134.8L0.8 134.8V135V182.155V182.355H1H2.15772V186.229V186.429H2.35772H7.74808H7.94808V186.229V182.355H73.1223V186.229V186.429H73.3223H78.712H78.912V186.229V182.355L80.0709 182.355L80.271 182.355V182.155V135.001V134.801L80.071 134.801L1 134.8ZM6.57212 185.052H3.5343V182.354H6.5727L6.57212 185.052ZM77.5348 185.052H74.4977V182.354H77.5348V185.052ZM78.8938 180.978H2.17447V136.176H78.8922L78.8938 180.978Z" fill="#EA142E" stroke="#EA142E" stroke-width="0.4"/>
<path d="M12.0347 143.776H11.8347V143.976V173.176V173.376H12.0347H13.0106H13.2106V173.176V143.976V143.776H13.0106H12.0347Z" fill="#EA142E" stroke="#EA142E" stroke-width="0.4"/>
<path d="M23.2402 143.776H23.0402V143.976V173.176V173.376H23.2402H24.2162H24.4162V173.176V143.976V143.776H24.2162H23.2402Z" fill="#EA142E" stroke="#EA142E" stroke-width="0.4"/>
<path d="M34.4456 143.776H34.2456V143.976V173.176V173.376H34.4456H35.4215H35.6215V173.176V143.976V143.776H35.4215H34.4456Z" fill="#EA142E" stroke="#EA142E" stroke-width="0.4"/>
<path d="M45.6492 143.776H45.4492V143.976V173.176V173.376H45.6492H46.6251H46.8251V173.176V143.976V143.776H46.6251H45.6492Z" fill="#EA142E" stroke="#EA142E" stroke-width="0.4"/>
<path d="M56.855 143.776H56.655V143.976V173.176V173.376H56.855H57.8309H58.0309V173.176V143.976V143.776H57.8309H56.855Z" fill="#EA142E" stroke="#EA142E" stroke-width="0.4"/>
<path d="M68.0586 143.776H67.8586V143.976V173.176V173.376H68.0586H69.0346H69.2346V173.176V143.976V143.776H69.0346H68.0586Z" fill="#EA142E" stroke="#EA142E" stroke-width="0.4"/>
<path d="M96 0.8L95.8 0.799998V1V48.1545V48.3545H96H97.1577V52.2291V52.4291H97.3577H102.748H102.948V52.2291V48.3545H168.122V52.2291V52.4291H168.322H173.712H173.912V52.2291V48.3546L175.071 48.3552L175.271 48.3553V48.1552V1.00065V0.800655L175.071 0.800654L96 0.8ZM101.572 51.0521H98.5343V48.3535H101.573L101.572 51.0521ZM172.535 51.0521H169.498V48.3535H172.535V51.0521ZM173.894 46.9776H97.1745V2.17596H173.892L173.894 46.9776Z" fill="#EA142E" stroke="#EA142E" stroke-width="0.4"/>
<path d="M107.035 9.77638H106.835V9.97638V39.1764V39.3764H107.035H108.011H108.211V39.1764V9.97638V9.77638H108.011H107.035Z" fill="#EA142E" stroke="#EA142E" stroke-width="0.4"/>
<path d="M118.24 9.77638H118.04V9.97638V39.1764V39.3764H118.24H119.216H119.416V39.1764V9.97638V9.77638H119.216H118.24Z" fill="#EA142E" stroke="#EA142E" stroke-width="0.4"/>
<path d="M129.446 9.77638H129.246V9.97638V39.1764V39.3764H129.446H130.422H130.622V39.1764V9.97638V9.77638H130.422H129.446Z" fill="#EA142E" stroke="#EA142E" stroke-width="0.4"/>
<path d="M140.649 9.77638H140.449V9.97638V39.1764V39.3764H140.649H141.625H141.825V39.1764V9.97638V9.77638H141.625H140.649Z" fill="#EA142E" stroke="#EA142E" stroke-width="0.4"/>
<path d="M151.855 9.77638H151.655V9.97638V39.1764V39.3764H151.855H152.831H153.031V39.1764V9.97638V9.77638H152.831H151.855Z" fill="#EA142E" stroke="#EA142E" stroke-width="0.4"/>
<path d="M163.059 9.77638H162.859V9.97638V39.1764V39.3764H163.059H164.035H164.235V39.1764V9.97638V9.77638H164.035H163.059Z" fill="#EA142E" stroke="#EA142E" stroke-width="0.4"/>
<path d="M96 67.8L95.8 67.8V68V115.155V115.355H96H97.1577V119.229V119.429H97.3577H102.748H102.948V119.229V115.355H168.122V119.229V119.429H168.322H173.712H173.912V119.229V115.355L175.071 115.355L175.271 115.355V115.155V68.0007V67.8007L175.071 67.8007L96 67.8ZM101.572 118.052H98.5343V115.354H101.573L101.572 118.052ZM172.535 118.052H169.498V115.354H172.535V118.052ZM173.894 113.978H97.1745V69.176H173.892L173.894 113.978Z" fill="#EA142E" stroke="#EA142E" stroke-width="0.4"/>
<path d="M107.035 76.7764H106.835V76.9764V106.176V106.376H107.035H108.011H108.211V106.176V76.9764V76.7764H108.011H107.035Z" fill="#EA142E" stroke="#EA142E" stroke-width="0.4"/>
<path d="M118.24 76.7764H118.04V76.9764V106.176V106.376H118.24H119.216H119.416V106.176V76.9764V76.7764H119.216H118.24Z" fill="#EA142E" stroke="#EA142E" stroke-width="0.4"/>
<path d="M129.446 76.7764H129.246V76.9764V106.176V106.376H129.446H130.422H130.622V106.176V76.9764V76.7764H130.422H129.446Z" fill="#EA142E" stroke="#EA142E" stroke-width="0.4"/>
<path d="M140.649 76.7764H140.449V76.9764V106.176V106.376H140.649H141.625H141.825V106.176V76.9764V76.7764H141.625H140.649Z" fill="#EA142E" stroke="#EA142E" stroke-width="0.4"/>
<path d="M151.855 76.7764H151.655V76.9764V106.176V106.376H151.855H152.831H153.031V106.176V76.9764V76.7764H152.831H151.855Z" fill="#EA142E" stroke="#EA142E" stroke-width="0.4"/>
<path d="M163.059 76.7764H162.859V76.9764V106.176V106.376H163.059H164.035H164.235V106.176V76.9764V76.7764H164.035H163.059Z" fill="#EA142E" stroke="#EA142E" stroke-width="0.4"/>
<path d="M96 134.8L95.8 134.8V135V182.155V182.355H96H97.1577V186.229V186.429H97.3577H102.748H102.948V186.229V182.355H168.122V186.229V186.429H168.322H173.712H173.912V186.229V182.355L175.071 182.355L175.271 182.355V182.155V135.001V134.801L175.071 134.801L96 134.8ZM101.572 185.052H98.5343V182.354H101.573L101.572 185.052ZM172.535 185.052H169.498V182.354H172.535V185.052ZM173.894 180.978H97.1745V136.176H173.892L173.894 180.978Z" fill="#EA142E" stroke="#EA142E" stroke-width="0.4"/>
<path d="M127.024 156.314H128.86C130.048 156.314 131.05 156.668 131.866 157.376C132.694 158.084 133.108 159.05 133.108 160.274C133.108 161.51 132.688 162.476 131.848 163.172C130.996 163.88 129.976 164.234 128.788 164.234C127.804 164.234 126.934 164 126.178 163.532C125.434 163.052 124.918 162.386 124.63 161.534L126.052 160.724C126.22 161.324 126.544 161.786 127.024 162.11C127.504 162.434 128.092 162.596 128.788 162.596C129.592 162.596 130.234 162.392 130.714 161.984C131.206 161.564 131.452 160.994 131.452 160.274C131.452 159.554 131.206 158.984 130.714 158.564C130.234 158.144 129.604 157.934 128.824 157.934H125.26L125.728 151.4H132.622V152.966H127.24L127.024 156.314ZM141.117 157.484C142.425 158.156 143.079 159.176 143.079 160.544C143.079 161.696 142.677 162.602 141.873 163.262C141.057 163.91 140.019 164.234 138.759 164.234C137.499 164.234 136.467 163.91 135.663 163.262C134.859 162.602 134.457 161.696 134.457 160.544C134.457 159.176 135.111 158.156 136.419 157.484C135.387 156.836 134.871 155.918 134.871 154.73C134.871 153.59 135.249 152.714 136.005 152.102C136.773 151.478 137.691 151.166 138.759 151.166C139.851 151.166 140.769 151.478 141.513 152.102C142.281 152.714 142.665 153.59 142.665 154.73C142.665 155.918 142.149 156.836 141.117 157.484ZM138.759 152.768C138.099 152.768 137.559 152.942 137.139 153.29C136.731 153.638 136.527 154.13 136.527 154.766C136.527 155.39 136.737 155.882 137.157 156.242C137.577 156.602 138.111 156.782 138.759 156.782C139.407 156.782 139.941 156.602 140.361 156.242C140.781 155.882 140.991 155.39 140.991 154.766C140.991 154.13 140.787 153.638 140.379 153.29C139.971 152.942 139.431 152.768 138.759 152.768ZM138.759 162.632C139.575 162.632 140.223 162.44 140.703 162.056C141.183 161.672 141.423 161.132 141.423 160.436C141.423 159.752 141.183 159.218 140.703 158.834C140.223 158.45 139.575 158.258 138.759 158.258C137.955 158.258 137.313 158.45 136.833 158.834C136.353 159.218 136.113 159.752 136.113 160.436C136.113 161.132 136.353 161.672 136.833 162.056C137.313 162.44 137.955 162.632 138.759 162.632Z" fill="#EA142E"/>
</svg>
