<svg width="230" height="161" viewBox="0 0 230 161" fill="none" xmlns="http://www.w3.org/2000/svg">
<path d="M1 58.8L0.8 58.8V59V98.282V98.482H1H1.93105V101.676V101.876H2.13105H6.62147H6.82147V101.676V98.482H61.0479V101.676V101.876H61.2479H65.7378H65.9378V101.676V98.4821L66.8698 98.4825L67.0699 98.4826V98.2825V59.0005V58.8005L66.8699 58.8005L1 58.8ZM5.60845 100.662H3.14458V98.4811H5.60893L5.60845 100.662ZM64.7238 100.662H62.2605V98.4811H64.7238V100.662ZM65.8559 97.2681H2.01178V60.013H65.8545L65.8559 97.2681Z" fill="white" stroke="white" stroke-width="0.4"/>
<path d="M10.1924 66.2777H9.99238V66.4777V90.8028V91.0028H10.1924H11.0054H11.2054V90.8028V66.4777V66.2777H11.0054H10.1924Z" fill="white" stroke="white" stroke-width="0.4"/>
<path d="M19.5271 66.2777H19.3271V66.4777V90.8028V91.0028H19.5271H20.3401H20.5401V90.8028V66.4777V66.2777H20.3401H19.5271Z" fill="white" stroke="white" stroke-width="0.4"/>
<path d="M28.8618 66.2777H28.6618V66.4777V90.8028V91.0028H28.8618H29.6748H29.8748V90.8028V66.4777V66.2777H29.6748H28.8618Z" fill="white" stroke="white" stroke-width="0.4"/>
<path d="M38.1948 66.2777H37.9948V66.4777V90.8028V91.0028H38.1948H39.0078H39.2078V90.8028V66.4777V66.2777H39.0078H38.1948Z" fill="white" stroke="white" stroke-width="0.4"/>
<path d="M47.5298 66.2777H47.3298V66.4777V90.8028V91.0028H47.5298H48.3428H48.5428V90.8028V66.4777V66.2777H48.3428H47.5298Z" fill="white" stroke="white" stroke-width="0.4"/>
<path d="M56.863 66.2777H56.663V66.4777V90.8028V91.0028H56.863H57.6761H57.8761V90.8028V66.4777V66.2777H57.6761H56.863Z" fill="white" stroke="white" stroke-width="0.4"/>
<path d="M163 58.8L162.8 58.8V59V98.282V98.482H163H163.931V101.676V101.876H164.131H168.621H168.821V101.676V98.482H223.048V101.676V101.876H223.248H227.738H227.938V101.676V98.4821L228.87 98.4825L229.07 98.4826V98.2825V59.0005V58.8005L228.87 58.8005L163 58.8ZM167.608 100.662H165.145V98.4811H167.609L167.608 100.662ZM226.724 100.662H224.26V98.4811H226.724V100.662ZM227.856 97.2681H164.012V60.013H227.855L227.856 97.2681Z" fill="white" stroke="white" stroke-width="0.4"/>
<path d="M172.192 66.2777H171.992V66.4777V90.8028V91.0028H172.192H173.005H173.205V90.8028V66.4777V66.2777H173.005H172.192Z" fill="white" stroke="white" stroke-width="0.4"/>
<path d="M181.527 66.2777H181.327V66.4777V90.8028V91.0028H181.527H182.34H182.54V90.8028V66.4777V66.2777H182.34H181.527Z" fill="white" stroke="white" stroke-width="0.4"/>
<path d="M190.862 66.2777H190.662V66.4777V90.8028V91.0028H190.862H191.675H191.875V90.8028V66.4777V66.2777H191.675H190.862Z" fill="white" stroke="white" stroke-width="0.4"/>
<path d="M200.195 66.2777H199.995V66.4777V90.8028V91.0028H200.195H201.008H201.208V90.8028V66.4777V66.2777H201.008H200.195Z" fill="white" stroke="white" stroke-width="0.4"/>
<path d="M209.53 66.2777H209.33V66.4777V90.8028V91.0028H209.53H210.343H210.543V90.8028V66.4777V66.2777H210.343H209.53Z" fill="white" stroke="white" stroke-width="0.4"/>
<path d="M218.863 66.2777H218.663V66.4777V90.8028V91.0028H218.863H219.676H219.876V90.8028V66.4777V66.2777H219.676H218.863Z" fill="white" stroke="white" stroke-width="0.4"/>
<path d="M1 0.8L0.8 0.799998V1V40.282V40.482H1H1.93105V43.6762V43.8762H2.13105H6.62147H6.82147V43.6762V40.482H61.0479V43.6762V43.8762H61.2479H65.7378H65.9378V43.6762V40.4821L66.8698 40.4825L67.0699 40.4826V40.2825V1.00054V0.800546L66.8699 0.800545L1 0.8ZM5.60845 42.6624H3.14458V40.4811H5.60893L5.60845 42.6624ZM64.7238 42.6624H62.2605V40.4811H64.7238V42.6624ZM65.8559 39.2681H2.01178V2.01302H65.8545L65.8559 39.2681Z" fill="white" stroke="white" stroke-width="0.4"/>
<path d="M10.1924 8.27772H9.99238V8.47772V32.8028V33.0028H10.1924H11.0054H11.2054V32.8028V8.47772V8.27772H11.0054H10.1924Z" fill="white" stroke="white" stroke-width="0.4"/>
<path d="M19.5271 8.27772H19.3271V8.47772V32.8028V33.0028H19.5271H20.3401H20.5401V32.8028V8.47772V8.27772H20.3401H19.5271Z" fill="white" stroke="white" stroke-width="0.4"/>
<path d="M28.8618 8.27772H28.6618V8.47772V32.8028V33.0028H28.8618H29.6748H29.8748V32.8028V8.47772V8.27772H29.6748H28.8618Z" fill="white" stroke="white" stroke-width="0.4"/>
<path d="M38.1948 8.27772H37.9948V8.47772V32.8028V33.0028H38.1948H39.0078H39.2078V32.8028V8.47772V8.27772H39.0078H38.1948Z" fill="white" stroke="white" stroke-width="0.4"/>
<path d="M47.5298 8.27772H47.3298V8.47772V32.8028V33.0028H47.5298H48.3428H48.5428V32.8028V8.47772V8.27772H48.3428H47.5298Z" fill="white" stroke="white" stroke-width="0.4"/>
<path d="M56.863 8.27772H56.663V8.47772V32.8028V33.0028H56.863H57.6761H57.8761V32.8028V8.47772V8.27772H57.6761H56.863Z" fill="white" stroke="white" stroke-width="0.4"/>
<path d="M1 116.8L0.8 116.8V117V156.282V156.482H1H1.93105V159.676V159.876H2.13105H6.62147H6.82147V159.676V156.482H61.0479V159.676V159.876H61.2479H65.7378H65.9378V159.676V156.482L66.8698 156.483L67.0699 156.483V156.283V117.001V116.801L66.8699 116.801L1 116.8ZM5.60845 158.662H3.14458V156.481H5.60893L5.60845 158.662ZM64.7238 158.662H62.2605V156.481H64.7238V158.662ZM65.8559 155.268H2.01178V118.013H65.8545L65.8559 155.268Z" fill="white" stroke="white" stroke-width="0.4"/>
<path d="M10.1924 124.278H9.99238V124.478V148.803V149.003H10.1924H11.0054H11.2054V148.803V124.478V124.278H11.0054H10.1924Z" fill="white" stroke="white" stroke-width="0.4"/>
<path d="M19.5271 124.278H19.3271V124.478V148.803V149.003H19.5271H20.3401H20.5401V148.803V124.478V124.278H20.3401H19.5271Z" fill="white" stroke="white" stroke-width="0.4"/>
<path d="M28.8618 124.278H28.6618V124.478V148.803V149.003H28.8618H29.6748H29.8748V148.803V124.478V124.278H29.6748H28.8618Z" fill="white" stroke="white" stroke-width="0.4"/>
<path d="M38.1948 124.278H37.9948V124.478V148.803V149.003H38.1948H39.0078H39.2078V148.803V124.478V124.278H39.0078H38.1948Z" fill="white" stroke="white" stroke-width="0.4"/>
<path d="M47.5298 124.278H47.3298V124.478V148.803V149.003H47.5298H48.3428H48.5428V148.803V124.478V124.278H48.3428H47.5298Z" fill="white" stroke="white" stroke-width="0.4"/>
<path d="M56.863 124.278H56.663V124.478V148.803V149.003H56.863H57.6761H57.8761V148.803V124.478V124.278H57.6761H56.863Z" fill="white" stroke="white" stroke-width="0.4"/>
<path d="M82 0.8L81.8 0.799998V1V40.282V40.482H82H82.931V43.6762V43.8762H83.131H87.6215H87.8215V43.6762V40.482H142.048V43.6762V43.8762H142.248H146.738H146.938V43.6762V40.4821L147.87 40.4825L148.07 40.4826V40.2825V1.00054V0.800546L147.87 0.800545L82 0.8ZM86.6085 42.6624H84.1446V40.4811H86.6089L86.6085 42.6624ZM145.724 42.6624H143.26V40.4811H145.724V42.6624ZM146.856 39.2681H83.0118V2.01302H146.855L146.856 39.2681Z" fill="white" stroke="white" stroke-width="0.4"/>
<path d="M91.1924 8.27772H90.9924V8.47772V32.8028V33.0028H91.1924H92.0054H92.2054V32.8028V8.47772V8.27772H92.0054H91.1924Z" fill="white" stroke="white" stroke-width="0.4"/>
<path d="M100.527 8.27772H100.327V8.47772V32.8028V33.0028H100.527H101.34H101.54V32.8028V8.47772V8.27772H101.34H100.527Z" fill="white" stroke="white" stroke-width="0.4"/>
<path d="M109.862 8.27772H109.662V8.47772V32.8028V33.0028H109.862H110.675H110.875V32.8028V8.47772V8.27772H110.675H109.862Z" fill="white" stroke="white" stroke-width="0.4"/>
<path d="M119.195 8.27772H118.995V8.47772V32.8028V33.0028H119.195H120.008H120.208V32.8028V8.47772V8.27772H120.008H119.195Z" fill="white" stroke="white" stroke-width="0.4"/>
<path d="M128.53 8.27772H128.33V8.47772V32.8028V33.0028H128.53H129.343H129.543V32.8028V8.47772V8.27772H129.343H128.53Z" fill="white" stroke="white" stroke-width="0.4"/>
<path d="M137.863 8.27772H137.663V8.47772V32.8028V33.0028H137.863H138.676H138.876V32.8028V8.47772V8.27772H138.676H137.863Z" fill="white" stroke="white" stroke-width="0.4"/>
<path d="M82 58.8L81.8 58.8V59V98.282V98.482H82H82.931V101.676V101.876H83.131H87.6215H87.8215V101.676V98.482H142.048V101.676V101.876H142.248H146.738H146.938V101.676V98.4821L147.87 98.4825L148.07 98.4826V98.2825V59.0005V58.8005L147.87 58.8005L82 58.8ZM86.6085 100.662H84.1446V98.4811H86.6089L86.6085 100.662ZM145.724 100.662H143.26V98.4811H145.724V100.662ZM146.856 97.2681H83.0118V60.013H146.855L146.856 97.2681Z" fill="white" stroke="white" stroke-width="0.4"/>
<path d="M91.1924 66.2777H90.9924V66.4777V90.8028V91.0028H91.1924H92.0054H92.2054V90.8028V66.4777V66.2777H92.0054H91.1924Z" fill="white" stroke="white" stroke-width="0.4"/>
<path d="M100.527 66.2777H100.327V66.4777V90.8028V91.0028H100.527H101.34H101.54V90.8028V66.4777V66.2777H101.34H100.527Z" fill="white" stroke="white" stroke-width="0.4"/>
<path d="M109.862 66.2777H109.662V66.4777V90.8028V91.0028H109.862H110.675H110.875V90.8028V66.4777V66.2777H110.675H109.862Z" fill="white" stroke="white" stroke-width="0.4"/>
<path d="M119.195 66.2777H118.995V66.4777V90.8028V91.0028H119.195H120.008H120.208V90.8028V66.4777V66.2777H120.008H119.195Z" fill="white" stroke="white" stroke-width="0.4"/>
<path d="M128.53 66.2777H128.33V66.4777V90.8028V91.0028H128.53H129.343H129.543V90.8028V66.4777V66.2777H129.343H128.53Z" fill="white" stroke="white" stroke-width="0.4"/>
<path d="M137.863 66.2777H137.663V66.4777V90.8028V91.0028H137.863H138.676H138.876V90.8028V66.4777V66.2777H138.676H137.863Z" fill="white" stroke="white" stroke-width="0.4"/>
<path d="M82 116.8L81.8 116.8V117V156.282V156.482H82H82.931V159.676V159.876H83.131H87.6215H87.8215V159.676V156.482H142.048V159.676V159.876H142.248H146.738H146.938V159.676V156.482L147.87 156.483L148.07 156.483V156.283V117.001V116.801L147.87 116.801L82 116.8ZM86.6085 158.662H84.1446V156.481H86.6089L86.6085 158.662ZM145.724 158.662H143.26V156.481H145.724V158.662ZM146.856 155.268H83.0118V118.013H146.855L146.856 155.268Z" fill="white" stroke="white" stroke-width="0.4"/>
<path d="M91.1924 124.278H90.9924V124.478V148.803V149.003H91.1924H92.0054H92.2054V148.803V124.478V124.278H92.0054H91.1924Z" fill="white" stroke="white" stroke-width="0.4"/>
<path d="M100.527 124.278H100.327V124.478V148.803V149.003H100.527H101.34H101.54V148.803V124.478V124.278H101.34H100.527Z" fill="white" stroke="white" stroke-width="0.4"/>
<path d="M109.862 124.278H109.662V124.478V148.803V149.003H109.862H110.675H110.875V148.803V124.478V124.278H110.675H109.862Z" fill="white" stroke="white" stroke-width="0.4"/>
<path d="M119.195 124.278H118.995V124.478V148.803V149.003H119.195H120.008H120.208V148.803V124.478V124.278H120.008H119.195Z" fill="white" stroke="white" stroke-width="0.4"/>
<path d="M128.53 124.278H128.33V124.478V148.803V149.003H128.53H129.343H129.543V148.803V124.478V124.278H129.343H128.53Z" fill="white" stroke="white" stroke-width="0.4"/>
<path d="M137.863 124.278H137.663V124.478V148.803V149.003H137.863H138.676H138.876V148.803V124.478V124.278H138.676H137.863Z" fill="white" stroke="white" stroke-width="0.4"/>
<path d="M163 0.8L162.8 0.799998V1V40.282V40.482H163H163.931V43.6762V43.8762H164.131H168.621H168.821V43.6762V40.482H223.048V43.6762V43.8762H223.248H227.738H227.938V43.6762V40.4821L228.87 40.4825L229.07 40.4826V40.2825V1.00054V0.800546L228.87 0.800545L163 0.8ZM167.608 42.6624H165.145V40.4811H167.609L167.608 42.6624ZM226.724 42.6624H224.26V40.4811H226.724V42.6624ZM227.856 39.2681H164.012V2.01302H227.855L227.856 39.2681Z" fill="white" stroke="white" stroke-width="0.4"/>
<path d="M172.192 8.27772H171.992V8.47772V32.8028V33.0028H172.192H173.005H173.205V32.8028V8.47772V8.27772H173.005H172.192Z" fill="white" stroke="white" stroke-width="0.4"/>
<path d="M181.527 8.27772H181.327V8.47772V32.8028V33.0028H181.527H182.34H182.54V32.8028V8.47772V8.27772H182.34H181.527Z" fill="white" stroke="white" stroke-width="0.4"/>
<path d="M190.862 8.27772H190.662V8.47772V32.8028V33.0028H190.862H191.675H191.875V32.8028V8.47772V8.27772H191.675H190.862Z" fill="white" stroke="white" stroke-width="0.4"/>
<path d="M200.195 8.27772H199.995V8.47772V32.8028V33.0028H200.195H201.008H201.208V32.8028V8.47772V8.27772H201.008H200.195Z" fill="white" stroke="white" stroke-width="0.4"/>
<path d="M209.53 8.27772H209.33V8.47772V32.8028V33.0028H209.53H210.343H210.543V32.8028V8.47772V8.27772H210.343H209.53Z" fill="white" stroke="white" stroke-width="0.4"/>
<path d="M218.863 8.27772H218.663V8.47772V32.8028V33.0028H218.863H219.676H219.876V32.8028V8.47772V8.27772H219.676H218.863Z" fill="white" stroke="white" stroke-width="0.4"/>
<path d="M163 116.8L162.8 116.8V117V156.282V156.482H163H163.931V159.676V159.876H164.131H168.621H168.821V159.676V156.482H223.048V159.676V159.876H223.248H227.738H227.938V159.676V156.482L228.87 156.483L229.07 156.483V156.283V117.001V116.801L228.87 116.801L163 116.8ZM167.608 158.662H165.145V156.481H167.609L167.608 158.662ZM226.724 158.662H224.26V156.481H226.724V158.662ZM227.856 155.268H164.012V118.013H227.855L227.856 155.268Z" fill="white" stroke="white" stroke-width="0.4"/>
<path d="M187.784 143H179.648V141.632L184.094 137.096C185.282 135.908 185.876 134.888 185.876 134.036C185.876 133.34 185.66 132.794 185.228 132.398C184.808 131.99 184.28 131.786 183.644 131.786C182.456 131.786 181.592 132.35 181.052 133.478L179.648 132.65C180.032 131.846 180.572 131.234 181.268 130.814C181.964 130.382 182.75 130.166 183.626 130.166C184.694 130.166 185.612 130.514 186.38 131.21C187.16 131.918 187.55 132.854 187.55 134.018C187.55 135.29 186.8 136.676 185.3 138.176L182.078 141.38H187.784V143ZM197.568 141.452C196.728 142.64 195.534 143.234 193.986 143.234C192.438 143.234 191.244 142.64 190.404 141.452C189.552 140.252 189.126 138.668 189.126 136.7C189.126 134.732 189.552 133.148 190.404 131.948C191.244 130.76 192.438 130.166 193.986 130.166C195.534 130.166 196.728 130.76 197.568 131.948C198.42 133.148 198.846 134.732 198.846 136.7C198.846 138.668 198.42 140.252 197.568 141.452ZM190.8 136.7C190.8 138.26 191.076 139.466 191.628 140.318C192.18 141.17 192.966 141.596 193.986 141.596C195.006 141.596 195.792 141.17 196.344 140.318C196.908 139.466 197.19 138.26 197.19 136.7C197.19 135.14 196.908 133.934 196.344 133.082C195.792 132.218 195.006 131.786 193.986 131.786C192.966 131.786 192.18 132.212 191.628 133.064C191.076 133.916 190.8 135.128 190.8 136.7ZM208.906 141.452C208.066 142.64 206.872 143.234 205.324 143.234C203.776 143.234 202.582 142.64 201.742 141.452C200.89 140.252 200.464 138.668 200.464 136.7C200.464 134.732 200.89 133.148 201.742 131.948C202.582 130.76 203.776 130.166 205.324 130.166C206.872 130.166 208.066 130.76 208.906 131.948C209.758 133.148 210.184 134.732 210.184 136.7C210.184 138.668 209.758 140.252 208.906 141.452ZM202.138 136.7C202.138 138.26 202.414 139.466 202.966 140.318C203.518 141.17 204.304 141.596 205.324 141.596C206.344 141.596 207.13 141.17 207.682 140.318C208.246 139.466 208.528 138.26 208.528 136.7C208.528 135.14 208.246 133.934 207.682 133.082C207.13 132.218 206.344 131.786 205.324 131.786C204.304 131.786 203.518 132.212 202.966 133.064C202.414 133.916 202.138 135.128 202.138 136.7Z" fill="white"/>
</svg>
