<svg width="13" height="18" viewBox="0 0 13 18" fill="none" xmlns="http://www.w3.org/2000/svg">
<path d="M6.1305 16.9902L6.13047 16.9902L6.13264 16.9936C6.20514 17.107 6.33059 17.1763 6.46592 17.1763C6.60126 17.1763 6.7267 17.107 6.7992 16.9936L6.79924 16.9936L6.80135 16.9902L11.096 9.96265L10.9253 9.85836L11.096 9.96264C11.6453 9.06374 12.1318 7.59182 12.1318 6.44219C12.1318 3.31536 9.59277 0.776318 6.46598 0.776318H6.46587C3.33904 0.776318 0.8 3.31539 0.8 6.44219C0.8 7.59181 1.28658 9.06387 1.83589 9.96265C1.83589 9.96265 1.8359 9.96265 1.8359 9.96265L6.1305 16.9902ZM6.46552 1.56684H6.50319C9.18095 1.58686 11.3413 3.75965 11.3413 6.44215C11.3413 6.9111 11.2314 7.4959 11.0589 8.06597C10.8865 8.63541 10.6562 9.17465 10.4251 9.5528L10.5958 9.65708L10.4251 9.5528L6.46569 16.0326L2.50628 9.5528C2.27527 9.17472 2.045 8.63551 1.87259 8.06608C1.69998 7.49603 1.59007 6.91123 1.59007 6.44229C1.59007 3.74731 3.77057 1.56684 6.46552 1.56684ZM6.46587 3.70446C4.95614 3.70446 3.72811 4.9325 3.72811 6.44222C3.72811 7.95195 4.95614 9.17998 6.46587 9.17998C7.97559 9.17998 9.20363 7.95195 9.20363 6.44222C9.20363 4.9325 7.97559 3.70446 6.46587 3.70446ZM6.46587 4.49485C7.54362 4.49485 8.41324 5.36435 8.41324 6.44222C8.41324 7.51996 7.54376 8.38946 6.46587 8.38946C5.38811 8.38946 4.51849 7.51995 4.51849 6.44222C4.51849 5.36447 5.388 4.49485 6.46587 4.49485Z" fill="#707C88" stroke="#707C88" stroke-width="0.4"/>
</svg>
