<svg width="50" height="50" viewBox="0 0 50 50" fill="none" xmlns="http://www.w3.org/2000/svg">
<circle cx="25" cy="25" r="25" fill="#EA142E"/>
<path d="M31.9465 17.4504L31.7697 17.2736L31.5929 17.4504L25 24.0433L18.4071 17.4504L18.2303 17.2736L18.0535 17.4504L17.4508 18.0531L17.274 18.2299L17.4508 18.4066L24.0437 24.9996L17.4508 31.5925L17.274 31.7693L17.4508 31.946L18.0535 32.5488L18.2303 32.7255L18.4071 32.5488L25 25.9558L31.5929 32.5488L31.7697 32.7255L31.9465 32.5488L32.5492 31.946L32.726 31.7693L32.5492 31.5925L25.9563 24.9996L32.5492 18.4066L32.726 18.2299L32.5492 18.0531L31.9465 17.4504Z" fill="white" stroke="white" stroke-width="0.5"/>
</svg>
