<svg width="29" height="20" viewBox="0 0 29 20" fill="none" xmlns="http://www.w3.org/2000/svg">
<path d="M28.2205 15.675C28.2205 15.675 27.9494 17.6375 27.1116 18.5C26.0396 19.6375 24.8444 19.6375 24.3023 19.7C20.3717 20 14.4821 20 14.4821 20C14.4821 20 7.20014 19.9375 4.94532 19.7125C4.31693 19.6 2.92461 19.625 1.85264 18.5C1.01478 17.6375 0.731391 15.675 0.731391 15.675C0.731391 15.675 0.447998 13.375 0.447998 11.075V8.9125C0.447998 6.6125 0.731391 4.3125 0.731391 4.3125C0.731391 4.3125 1.00246 2.35 1.85264 1.4875C2.92461 0.35 4.10746 0.35 4.66193 0.2875C8.59246 1.86264e-08 14.4821 0 14.4821 0C14.4821 0 20.3964 -2.42144e-07 24.3392 0.25C24.8814 0.375 26.0642 0.375 27.1732 1.45C28.011 2.325 28.2821 4.325 28.2821 4.275C28.2821 4.225 28.5655 6.525 28.5285 8.875V11.0375C28.5039 13.375 28.1589 15.625 28.1589 15.675H28.2205ZM11.5866 5.7V13.6875L19.1642 9.7125L11.5866 5.7Z" fill="white"/>
</svg>
