<svg width="21" height="20" viewBox="0 0 21 20" fill="none" xmlns="http://www.w3.org/2000/svg">
<path d="M10.2859 1.75C12.9109 1.75 13.2859 1.75 14.2859 1.75C15.2859 1.75 15.7859 2 16.1609 2.125C16.6609 2.25 16.9109 2.5 17.2859 2.875C17.6609 3.25 17.9109 3.5 18.0359 4C18.1609 4.375 18.2859 4.875 18.4109 5.875C18.4109 6.875 18.4109 7.25 18.4109 9.875C18.4109 12.5 18.4109 12.875 18.4109 13.875C18.4109 14.875 18.1609 15.375 18.0359 15.75C17.9109 16.25 17.6609 16.5 17.2859 16.875C16.9109 17.25 16.6609 17.5 16.1609 17.625C15.7859 17.75 15.2859 17.875 14.2859 18C13.2859 18 12.9109 18 10.2859 18C7.66089 18 7.28589 18 6.28589 18C5.28589 18 4.78589 17.75 4.41089 17.625C3.91089 17.5 3.66089 17.25 3.28589 16.875C2.91089 16.5 2.66089 16.25 2.53589 15.75C2.41089 15.375 2.28589 14.875 2.16089 13.875C2.16089 12.875 2.16089 12.5 2.16089 9.875C2.16089 7.25 2.16089 6.875 2.16089 5.875C2.16089 4.875 2.41089 4.375 2.53589 4C2.66089 3.5 2.91089 3.25 3.28589 2.875C3.66089 2.5 3.91089 2.25 4.41089 2.125C4.78589 2 5.28589 1.875 6.28589 1.75C7.28589 1.75 7.66089 1.75 10.2859 1.75ZM10.2859 0C7.53589 0 7.28589 0 6.16089 0C5.03589 0 4.41089 0.25 3.78589 0.5C3.16089 0.75 2.53589 1.125 2.03589 1.625C1.41089 2.25 1.03589 2.75 0.785889 3.5C0.535889 4.125 0.410889 4.875 0.285889 5.875C0.285889 7 0.285889 7.25 0.285889 10C0.285889 12.75 0.285889 13 0.285889 14.125C0.285889 15.25 0.535889 15.875 0.785889 16.5C1.03589 17.125 1.41089 17.75 1.91089 18.25C2.41089 18.75 3.03589 19.125 3.66089 19.375C4.28589 19.625 5.03589 19.75 6.03589 19.875C7.16089 19.875 7.41089 19.875 10.1609 19.875C12.9109 19.875 13.1609 19.875 14.2859 19.875C15.4109 19.875 16.0359 19.625 16.6609 19.375C17.2859 19.125 17.9109 18.75 18.4109 18.25C18.9109 17.75 19.2859 17.125 19.5359 16.5C19.7859 15.875 19.9109 15.125 20.0359 14.125C20.0359 13 20.0359 12.75 20.0359 10C20.0359 7.25 20.0359 7 20.0359 5.875C20.0359 4.75 19.7859 4.125 19.5359 3.5C19.2859 2.875 18.9109 2.25 18.4109 1.75C17.9109 1.25 17.2859 0.875 16.6609 0.625C16.0359 0.375 15.2859 0.25 14.2859 0.125C13.2859 -1.21072e-07 13.0359 0 10.2859 0Z" fill="white"/>
<path d="M10.2859 4.875C7.41089 4.875 5.16089 7.125 5.16089 10C5.16089 12.875 7.41089 15.125 10.2859 15.125C13.1609 15.125 15.4109 12.875 15.4109 10C15.4109 7.125 13.1609 4.875 10.2859 4.875ZM10.2859 13.375C8.41089 13.375 6.91089 11.875 6.91089 10C6.91089 8.125 8.41089 6.625 10.2859 6.625C12.1609 6.625 13.6609 8.125 13.6609 10C13.6609 11.875 12.1609 13.375 10.2859 13.375Z" fill="white"/>
<path d="M16.7859 4.625C16.7859 5.25 16.2859 5.875 15.5359 5.875C14.7859 5.875 14.2859 5.375 14.2859 4.625C14.2859 3.875 14.7859 3.375 15.5359 3.375C16.2859 3.375 16.7859 4 16.7859 4.625Z" fill="white"/>
</svg>
