<svg width="39" height="47" viewBox="0 0 39 47" fill="none" xmlns="http://www.w3.org/2000/svg">
<path d="M37.4242 46.9154C37.7696 46.915 38.05 46.6346 38.05 46.2887L38.05 12.0432C38.05 11.8773 37.984 11.7178 37.8666 11.6004L27.1718 0.906627C27.0543 0.789161 26.8953 0.723193 26.7293 0.723193H1.57631C1.2304 0.723193 0.95 1.00359 0.95 1.34951V46.2891C0.95 46.635 1.2304 46.9154 1.57631 46.9154H37.4241H37.4242ZM26.7827 2.28772L35.9306 11.4356H26.7827V2.28772ZM2.20314 45.663V1.97564H25.5308V12.0621C25.5308 12.408 25.8112 12.6884 26.1571 12.6884L36.7988 12.688V45.663L2.20314 45.663Z" fill="#EA142E" stroke="#EA142E" stroke-width="0.1"/>
<path d="M29.1827 17.9706H9.81789C9.47197 17.9706 9.19158 18.251 9.19158 18.5969C9.19158 18.9429 9.47197 19.2233 9.81789 19.2233H29.1827C29.5286 19.2233 29.809 18.9429 29.809 18.5969C29.809 18.251 29.5286 17.9706 29.1827 17.9706Z" fill="#EA142E" stroke="#EA142E" stroke-width="0.1"/>
<path d="M29.184 24.7486L29.1839 24.7486L9.81913 24.7212H9.81906H9.81826C9.47275 24.7212 9.19282 25.0008 9.19194 25.3466L9.19194 25.3467C9.19151 25.6926 9.4715 25.973 9.81733 25.9739L9.81738 25.9739L29.1822 26.0012H29.1822H29.183C29.5285 26.0012 29.8085 25.7216 29.8093 25.3758V25.3757C29.8098 25.0298 29.5298 24.7494 29.184 24.7486Z" fill="#EA142E" stroke="#EA142E" stroke-width="0.1"/>
<path d="M9.45029 31.5003V31.5003H9.45009H9.4498C9.40095 31.5003 9.36098 31.5278 9.33097 31.563C9.30081 31.5983 9.2759 31.6465 9.25596 31.7017C9.21593 31.8125 9.19209 31.9624 9.19194 32.1258L9.19194 32.1258C9.19187 32.2892 9.2156 32.4392 9.25558 32.5504C9.27549 32.6057 9.30038 32.654 9.33051 32.6895C9.36046 32.7248 9.40035 32.7526 9.44916 32.7529L9.44932 32.7529L16.4336 32.7802H16.4338H16.4341C16.4829 32.7802 16.5229 32.7527 16.5529 32.7176C16.5831 32.6822 16.608 32.634 16.6279 32.5788C16.668 32.468 16.6918 32.3181 16.6919 32.1548V32.1548C16.692 31.9914 16.6683 31.8412 16.6283 31.73C16.6084 31.6747 16.5835 31.6263 16.5534 31.5908C16.5234 31.5556 16.4835 31.5278 16.4346 31.5276C16.4346 31.5276 16.4346 31.5276 16.4345 31.5276L9.45029 31.5003Z" fill="#EA142E" stroke="#EA142E" stroke-width="0.1"/>
<path d="M9.45029 38.2796V38.2796H9.45009H9.4498C9.40095 38.2796 9.36098 38.3071 9.33097 38.3423C9.30081 38.3776 9.2759 38.4258 9.25596 38.481C9.21593 38.5918 9.19209 38.7417 9.19194 38.9051L9.19194 38.9051C9.19187 39.0685 9.2156 39.2185 9.25558 39.3296C9.27549 39.385 9.30038 39.4333 9.33051 39.4688C9.36046 39.5041 9.40035 39.5319 9.44916 39.5322L9.44932 39.5322L16.4336 39.5595H16.4338H16.4341C16.4829 39.5595 16.5229 39.532 16.5529 39.4969C16.5831 39.4615 16.608 39.4133 16.6279 39.3581C16.668 39.2473 16.6918 39.0974 16.6919 38.9341V38.9341C16.692 38.7707 16.6683 38.6205 16.6283 38.5093C16.6084 38.454 16.5835 38.4056 16.5534 38.3701C16.5234 38.3349 16.4835 38.3071 16.4346 38.3069C16.4346 38.3069 16.4346 38.3069 16.4345 38.3069L9.45029 38.2796Z" fill="#EA142E" stroke="#EA142E" stroke-width="0.1"/>
<path fill-rule="evenodd" clip-rule="evenodd" d="M21.5261 35.0061L20.24 36.2776L24.3738 40.3668L33.56 31.2797L32.2739 30.0068L24.3738 37.8224L21.5261 35.0061Z" fill="#EA142E"/>
</svg>
