<svg width="62" height="43" viewBox="0 0 62 43" fill="none" xmlns="http://www.w3.org/2000/svg">
<g filter="url(#filter0_d_120_329)">
<path d="M5 0.314844L4.85 0.314843V0.464844V31.4754V31.6254H5H5.74289V34.155V34.305H5.89289H9.43778H9.58778V34.155V31.6254H52.4118V34.155V34.305H52.5618H56.1063H56.2563V34.155V31.6255L56.9999 31.6258L57.15 31.6259V31.4758V0.465274V0.315275L57 0.315274L5 0.314844ZM8.64596 33.3625H6.68512V31.6247H8.64633L8.64596 33.3625ZM55.3136 33.3625H53.3533V31.6247H55.3136V33.3625ZM56.2074 30.6829H5.79085V1.25667H56.2063L56.2074 30.6829Z" fill="#EA142E" stroke="#EA142E" stroke-width="0.3"/>
<path d="M24.922 15.1057C25.8833 15.6377 26.364 16.431 26.364 17.4857C26.364 18.3723 26.0513 19.077 25.426 19.5997C24.81 20.1223 23.9793 20.3837 22.934 20.3837C21.8887 20.3837 21.0533 20.127 20.428 19.6137C19.8027 19.1003 19.49 18.391 19.49 17.4857C19.49 16.9817 19.616 16.5243 19.868 16.1137C20.12 15.6937 20.4747 15.3577 20.932 15.1057C20.1947 14.6203 19.826 13.9297 19.826 13.0337C19.826 12.1377 20.1247 11.447 20.722 10.9617C21.3287 10.467 22.066 10.2197 22.934 10.2197C23.7927 10.2197 24.5253 10.467 25.132 10.9617C25.7387 11.4563 26.042 12.147 26.042 13.0337C26.042 13.9203 25.6687 14.611 24.922 15.1057ZM22.934 11.7457C22.486 11.7457 22.122 11.867 21.842 12.1097C21.5713 12.343 21.436 12.6743 21.436 13.1037C21.436 13.5143 21.576 13.8457 21.856 14.0977C22.136 14.3403 22.4953 14.4617 22.934 14.4617C23.3633 14.4617 23.718 14.3403 23.998 14.0977C24.2873 13.8457 24.432 13.5143 24.432 13.1037C24.432 12.6743 24.292 12.343 24.012 12.1097C23.732 11.867 23.3727 11.7457 22.934 11.7457ZM22.934 18.8577C23.4847 18.8577 23.9233 18.7223 24.25 18.4517C24.586 18.181 24.754 17.8077 24.754 17.3317C24.754 16.8557 24.586 16.4823 24.25 16.2117C23.9233 15.941 23.4847 15.8057 22.934 15.8057C22.374 15.8057 21.926 15.941 21.59 16.2117C21.2633 16.4823 21.1 16.8557 21.1 17.3317C21.1 17.8077 21.2633 18.181 21.59 18.4517C21.926 18.7223 22.374 18.8577 22.934 18.8577ZM29.3289 14.0977H30.5609C31.4943 14.0977 32.2829 14.3777 32.9269 14.9377C33.5709 15.4883 33.8929 16.2537 33.8929 17.2337C33.8929 18.2137 33.5616 18.9837 32.8989 19.5437C32.2456 20.1037 31.4336 20.3837 30.4629 20.3837C29.6696 20.3837 28.9789 20.2017 28.3909 19.8377C27.8029 19.4737 27.3829 18.9557 27.1309 18.2837L28.5169 17.4857C28.7876 18.3723 29.4363 18.8157 30.4629 18.8157C31.0136 18.8157 31.4523 18.6757 31.7789 18.3957C32.1149 18.1063 32.2829 17.719 32.2829 17.2337C32.2829 16.7577 32.1196 16.3797 31.7929 16.0997C31.4663 15.8103 31.0323 15.6657 30.4909 15.6657H27.6349L28.0129 10.4017H33.4729V11.9137H29.4969L29.3289 14.0977ZM38.6864 10.8637C39.1251 11.3023 39.3444 11.8343 39.3444 12.4597C39.3444 13.085 39.1251 13.617 38.6864 14.0557C38.2571 14.485 37.7157 14.6997 37.0624 14.6997C36.3997 14.6997 35.8537 14.485 35.4244 14.0557C34.9857 13.617 34.7664 13.085 34.7664 12.4597C34.7664 11.8437 34.9857 11.3163 35.4244 10.8777C35.8631 10.439 36.4091 10.2197 37.0624 10.2197C37.7157 10.2197 38.2571 10.4343 38.6864 10.8637ZM37.0484 13.4677C37.3471 13.4677 37.5897 13.3743 37.7764 13.1877C37.9631 12.9917 38.0564 12.749 38.0564 12.4597C38.0564 12.1703 37.9631 11.9277 37.7764 11.7317C37.5897 11.5357 37.3471 11.4377 37.0484 11.4377C36.7591 11.4377 36.5211 11.5357 36.3344 11.7317C36.1477 11.9277 36.0544 12.1703 36.0544 12.4597C36.0544 12.7397 36.1477 12.9777 36.3344 13.1737C36.5304 13.3697 36.7684 13.4677 37.0484 13.4677ZM36.3484 19.2077L35.5924 18.7597L42.0464 11.5777L42.8024 12.0117L36.3484 19.2077ZM41.5424 20.3697C40.8797 20.3697 40.3337 20.155 39.9044 19.7257C39.4657 19.287 39.2464 18.755 39.2464 18.1297C39.2464 17.5137 39.4657 16.9863 39.9044 16.5477C40.3431 16.109 40.8891 15.8897 41.5424 15.8897C42.1864 15.8897 42.7277 16.109 43.1664 16.5477C43.6051 16.9863 43.8244 17.5137 43.8244 18.1297C43.8244 18.755 43.6051 19.287 43.1664 19.7257C42.7371 20.155 42.1957 20.3697 41.5424 20.3697ZM41.5284 19.1377C41.8271 19.1377 42.0697 19.0443 42.2564 18.8577C42.4431 18.6617 42.5364 18.419 42.5364 18.1297C42.5364 17.8403 42.4431 17.5977 42.2564 17.4017C42.0697 17.2057 41.8271 17.1077 41.5284 17.1077C41.2391 17.1077 41.0011 17.2057 40.8144 17.4017C40.6277 17.5977 40.5344 17.8403 40.5344 18.1297C40.5344 18.4097 40.6277 18.6477 40.8144 18.8437C41.0104 19.0397 41.2484 19.1377 41.5284 19.1377Z" fill="#EA142E"/>
</g>
<defs>
<filter id="filter0_d_120_329" x="0.699951" y="0.164795" width="60.6001" height="42.2902" filterUnits="userSpaceOnUse" color-interpolation-filters="sRGB">
<feFlood flood-opacity="0" result="BackgroundImageFix"/>
<feColorMatrix in="SourceAlpha" type="matrix" values="0 0 0 0 0 0 0 0 0 0 0 0 0 0 0 0 0 0 127 0" result="hardAlpha"/>
<feOffset dy="4"/>
<feGaussianBlur stdDeviation="2"/>
<feComposite in2="hardAlpha" operator="out"/>
<feColorMatrix type="matrix" values="0 0 0 0 0 0 0 0 0 0 0 0 0 0 0 0 0 0 0.25 0"/>
<feBlend mode="normal" in2="BackgroundImageFix" result="effect1_dropShadow_120_329"/>
<feBlend mode="normal" in="SourceGraphic" in2="effect1_dropShadow_120_329" result="shape"/>
</filter>
</defs>
</svg>
