<svg width="42" height="34" viewBox="0 0 42 34" fill="none" xmlns="http://www.w3.org/2000/svg">
<g opacity="0.5">
<path d="M17.0973 16.561H2.04874C2.17287 12.2762 3.7569 8.64932 6.39076 6.09071C9.03513 3.52189 12.7406 2.02713 17.0973 2.02713H17.118L17.1189 2.02617C17.406 2.01509 17.6357 1.7785 17.6357 1.48877C17.6357 1.192 17.3946 0.950977 17.0979 0.950977C12.3469 0.950977 8.30926 2.61016 5.45929 5.46006C2.60932 8.30996 0.95 12.3476 0.95 17.0988V32.7083C0.95 33.0051 1.19102 33.2461 1.4878 33.2461H17.0973C17.3941 33.2461 17.6351 33.0051 17.6351 32.7083V17.0988C17.6351 16.8021 17.3941 16.561 17.0973 16.561ZM16.5601 32.17H2.02615V17.6361H16.5601V32.17Z" fill="#3C4D69" stroke="#3C4D69" stroke-width="0.1"/>
<path d="M40.6213 16.5713L40.633 16.5595H40.5123H25.4626C25.5867 12.2747 27.1707 8.64779 29.8046 6.08918C32.4491 3.52036 36.1548 2.02559 40.5123 2.02559C40.8091 2.02559 41.0501 1.78458 41.0501 1.4878C41.0501 1.19102 40.8091 0.95 40.5123 0.95C35.7613 0.95 31.7237 2.60918 28.8737 5.45908C26.0237 8.30898 24.3644 12.3466 24.3644 17.0979V32.7074C24.3644 33.0041 24.6054 33.2452 24.9022 33.2452H40.5117C40.8085 33.2452 41.0495 33.0041 41.0495 32.7074V17.0979C41.0495 16.8386 40.8656 16.6219 40.6213 16.5713ZM39.9745 32.169H25.4406V17.6351H39.9745V32.169Z" fill="#3C4D69" stroke="#3C4D69" stroke-width="0.1"/>
</g>
</svg>
