<svg width="109" height="109" viewBox="0 0 109 109" fill="none" xmlns="http://www.w3.org/2000/svg">
<rect width="108.943" height="109" fill="#EA142E"/>
<rect width="108.943" height="109" fill="url(#paint0_linear_766_1489)"/>
<path d="M27.2643 17V24.3614H18V83.8319H52.0777C56.1007 88.845 62.1283 91.8302 68.5537 91.993C74.9793 92.1557 81.1505 89.4787 85.4227 84.676C89.695 79.8734 91.6337 73.4323 90.7227 67.07C89.8117 60.7073 86.1439 55.0687 80.6963 51.6574V24.3622H71.3496V17.0007H61.0105V24.3622H37.6028V17.0007L27.2643 17ZM28.9184 18.6541H35.9493L35.9487 29.4893H28.9184L28.9184 18.6541ZM89.2987 70.1842C89.2987 75.5366 87.1721 80.6704 83.3872 84.4552C79.6024 88.2401 74.4692 90.3662 69.1168 90.3662C63.7638 90.3662 58.6306 88.2401 54.8457 84.4552C51.0609 80.6704 48.9347 75.5366 48.9347 70.1842C48.9347 64.8317 51.0609 59.6985 54.8457 55.9137C58.6306 52.1288 63.7638 50.0022 69.1168 50.0022C74.4622 50.0242 79.5833 52.1572 83.3636 55.9375C87.1433 59.7177 89.2768 64.8382 89.2988 70.1843L89.2987 70.1842ZM69.1168 48.348C63.8341 48.3405 58.7286 50.2473 54.7447 53.7166C50.7613 57.1853 48.1702 61.981 47.4514 67.214C46.733 72.4471 47.936 77.7631 50.837 82.1776H19.6543V39.6633H79.042V50.7467C75.9709 49.171 72.5686 48.3489 69.1166 48.3483L69.1168 48.348ZM62.6652 18.6541H69.6961L69.6955 29.4893H62.6652L62.6652 18.6541ZM61.0111 26.0155V31.1436H71.3496V26.0155H79.0416L79.0421 38.0087H19.6544V26.0155H27.3464V31.1436H37.6035V26.0155H61.0111Z" fill="white"/>
<path d="M27.2643 17V24.3614H18V83.8319H52.0777C56.1007 88.845 62.1283 91.8302 68.5537 91.993C74.9793 92.1557 81.1505 89.4787 85.4227 84.676C89.695 79.8734 91.6337 73.4323 90.7227 67.07C89.8117 60.7073 86.1439 55.0687 80.6963 51.6574V24.3622H71.3496V17.0007H61.0105V24.3622H37.6028V17.0007L27.2643 17ZM28.9184 18.6541H35.9493L35.9487 29.4893H28.9184L28.9184 18.6541ZM89.2987 70.1842C89.2987 75.5366 87.1721 80.6704 83.3872 84.4552C79.6024 88.2401 74.4692 90.3662 69.1168 90.3662C63.7638 90.3662 58.6306 88.2401 54.8457 84.4552C51.0609 80.6704 48.9347 75.5366 48.9347 70.1842C48.9347 64.8317 51.0609 59.6985 54.8457 55.9137C58.6306 52.1288 63.7638 50.0022 69.1168 50.0022C74.4622 50.0242 79.5833 52.1572 83.3636 55.9375C87.1433 59.7177 89.2768 64.8382 89.2988 70.1843L89.2987 70.1842ZM69.1168 48.348C63.8341 48.3405 58.7286 50.2473 54.7447 53.7166C50.7613 57.1853 48.1702 61.981 47.4514 67.214C46.733 72.4471 47.936 77.7631 50.837 82.1776H19.6543V39.6633H79.042V50.7467C75.9709 49.171 72.5686 48.3489 69.1166 48.3483L69.1168 48.348ZM62.6652 18.6541H69.6961L69.6955 29.4893H62.6652L62.6652 18.6541ZM61.0111 26.0155V31.1436H71.3496V26.0155H79.0416L79.0421 38.0087H19.6544V26.0155H27.3464V31.1436H37.6035V26.0155H61.0111Z" stroke="white"/>
<path d="M69.92 76.768C70.6973 76.768 71.372 76.5773 71.944 76.196C72.5307 75.8147 72.9633 75.2647 73.242 74.546L74.518 75.272C74.1367 76.2253 73.5427 76.966 72.736 77.494C71.944 78.0073 71.0053 78.264 69.92 78.264C68.336 78.264 67.0307 77.7213 66.004 76.636C64.992 75.5507 64.354 74.0547 64.09 72.148H62.44V70.872H63.98V70.3C63.98 69.904 63.9873 69.6547 64.002 69.552H62.44V68.276H64.134C64.398 66.428 65.036 64.976 66.048 63.92C67.0747 62.864 68.3653 62.336 69.92 62.336C71.0053 62.336 71.944 62.6 72.736 63.128C73.5427 63.6413 74.1367 64.3673 74.518 65.306L73.242 66.032C72.626 64.5653 71.5187 63.832 69.92 63.832C68.8053 63.832 67.874 64.2207 67.126 64.998C66.3927 65.7753 65.9087 66.868 65.674 68.276H71.24V69.552H65.542C65.5273 69.6547 65.52 69.904 65.52 70.3C65.52 70.608 65.5273 70.7987 65.542 70.872H71.24V72.148H65.652C65.872 73.6293 66.3487 74.7733 67.082 75.58C67.83 76.372 68.776 76.768 69.92 76.768Z" fill="white"/>
<defs>
<linearGradient id="paint0_linear_766_1489" x1="-18.8175" y1="87.2" x2="170.172" y2="71.1676" gradientUnits="userSpaceOnUse">
<stop offset="0.426427" stop-color="#212C3F"/>
<stop offset="1" stop-color="#EA142E"/>
</linearGradient>
</defs>
</svg>
