<svg width="70" height="65" viewBox="0 0 70 65" fill="none" xmlns="http://www.w3.org/2000/svg">
<path d="M68.5918 14.866C68.5916 14.866 68.5914 14.866 68.5912 14.866H40.8918V1.52396C40.8918 1.15151 40.5903 0.85 40.2179 0.85H29.6844C29.3119 0.85 29.0104 1.15151 29.0104 1.52396V14.866H1.52396C1.15151 14.866 0.85 15.1675 0.85 15.54V63.476C0.85 63.8485 1.15151 64.15 1.52396 64.15H68.5912C68.9637 64.15 69.2652 63.8485 69.2652 63.476V15.54C69.2652 15.1677 68.964 14.8663 68.5918 14.866ZM30.3589 2.19793H39.5444V15.5137C39.5433 15.5208 39.5424 15.5295 39.5424 15.5394C39.5424 15.5495 39.5433 15.5583 39.5444 15.5652V18.9498H30.3589V2.19793ZM67.9178 62.8021H2.19845V16.2139H29.0109V19.6243C29.0109 19.9967 29.3124 20.2982 29.6849 20.2982H40.2184C40.5908 20.2982 40.8923 19.9967 40.8923 19.6243V16.2139H67.9183L67.9178 62.8021Z" fill="#EA142E" stroke="#EA142E" stroke-width="0.3"/>
<path d="M25.8142 26.2602H7.97196C7.59951 26.2602 7.298 26.5617 7.298 26.9341V48.4402C7.298 48.8126 7.59951 49.1141 7.97196 49.1141H25.8142C26.1867 49.1141 26.4882 48.8126 26.4882 48.4402V26.9341C26.4882 26.5617 26.1867 26.2602 25.8142 26.2602ZM25.1403 47.7662H8.64592V27.6081H25.1403V47.7662Z" fill="#EA142E" stroke="#EA142E" stroke-width="0.3"/>
<path d="M33.3101 29.083C33.3101 29.4555 33.6116 29.757 33.984 29.757H62.1444C62.5169 29.757 62.8184 29.4555 62.8184 29.083C62.8184 28.7106 62.5169 28.4091 62.1444 28.4091H33.984C33.6122 28.4091 33.3101 28.7105 33.3101 29.083Z" fill="#EA142E" stroke="#EA142E" stroke-width="0.3"/>
<path d="M62.1444 38.8354H33.984C33.6116 38.8354 33.3101 39.1369 33.3101 39.5093C33.3101 39.8818 33.6116 40.1833 33.984 40.1833H62.1444C62.5169 40.1833 62.8184 39.8818 62.8184 39.5093C62.8184 39.1369 62.5169 38.8354 62.1444 38.8354Z" fill="#EA142E" stroke="#EA142E" stroke-width="0.3"/>
<path d="M62.1444 49.2616H33.984C33.6116 49.2616 33.3101 49.5631 33.3101 49.9356C33.3101 50.308 33.6116 50.6095 33.984 50.6095H62.1444C62.5169 50.6095 62.8184 50.308 62.8184 49.9356C62.8184 49.5631 62.5169 49.2616 62.1444 49.2616Z" fill="#EA142E" stroke="#EA142E" stroke-width="0.3"/>
<path d="M25.8142 55.2987H7.97196C7.59951 55.2987 7.298 55.6002 7.298 55.9727C7.298 56.3451 7.59951 56.6467 7.97196 56.6467H25.8142C26.1867 56.6467 26.4882 56.3451 26.4882 55.9727C26.4882 55.6002 26.1867 55.2987 25.8142 55.2987Z" fill="#EA142E" stroke="#EA142E" stroke-width="0.3"/>
</svg>
