<svg width="151" height="62" viewBox="0 0 151 62" fill="none" xmlns="http://www.w3.org/2000/svg">
<path d="M75.7335 15.5874C79.7688 15.5874 83.0522 12.3051 83.0522 8.2687C83.0522 4.23233 79.7677 0.95 75.7335 0.95C71.6983 0.95 68.4148 4.2345 68.4148 8.2687C68.4148 12.304 71.6983 15.5874 75.7335 15.5874ZM75.7335 2.50552C78.9122 2.50552 81.4986 5.09107 81.4986 8.27059C81.4986 11.4492 78.9131 14.0338 75.7335 14.0338C72.554 14.0338 69.9685 11.4482 69.9685 8.27062C69.9706 5.09001 72.5561 2.50552 75.7335 2.50552Z" fill="#EA142E" stroke="#EA142E" stroke-width="0.1"/>
<path d="M86.5184 38.7148V38.6648H86.5177V26.5882C86.5177 22.536 83.2216 19.2391 79.1696 19.2391H72.2981C68.2458 19.2391 64.95 22.5362 64.95 26.5882V38.7148C64.95 40.455 66.3648 41.8689 68.103 41.8689H69.279V57.8973C69.279 59.6376 70.6939 61.0503 72.4331 61.0503H79.0321C80.7723 61.0503 82.1862 59.6354 82.1862 57.8973L82.1872 41.8689H83.3632C85.1035 41.8689 86.5184 40.4551 86.5184 38.7148ZM80.682 40.3153H80.632V40.3653V57.8981C80.632 58.7795 79.915 59.4965 79.0336 59.4965H72.4347C71.5533 59.4965 70.8363 58.7795 70.8363 57.8981V40.3653V40.3153H70.7863H68.1047C67.2233 40.3153 66.5063 39.5982 66.5063 38.7169V26.5903C66.5063 23.396 69.1055 20.7967 72.2999 20.7967H79.1714C82.3658 20.7967 84.9651 23.3959 84.9651 26.5903V38.7169C84.9651 39.5982 84.2481 40.3153 83.3667 40.3153H80.682Z" fill="#EA142E" stroke="#EA142E" stroke-width="0.1"/>
<path d="M51.839 19.3759C55.5403 19.3759 58.5519 16.3652 58.5519 12.6629C58.5519 8.96065 55.5393 5.95 51.839 5.95C48.1377 5.95 45.126 8.96264 45.126 12.6629C45.126 16.3642 48.1377 19.3759 51.839 19.3759ZM51.839 7.38422C54.7504 7.38422 57.1194 9.75244 57.1194 12.6647C57.1194 15.5761 54.7512 17.9434 51.839 17.9434C48.9267 17.9434 46.5585 15.5752 46.5585 12.6647C46.5604 9.75146 48.9287 7.38422 51.839 7.38422Z" fill="#EA142E" stroke="#EA142E" stroke-width="0.1"/>
<path d="M61.7293 40.5724V40.5224H61.7286V29.4565C61.7286 25.7396 58.7054 22.7156 54.9887 22.7156H48.6899C44.973 22.7156 41.95 25.7399 41.95 29.4565V40.5724C41.95 42.17 43.2488 43.4679 44.8444 43.4679H45.9183V58.1563C45.9183 59.7539 47.2171 61.0507 48.8137 61.0507H54.8627C56.4602 61.0507 57.7581 59.7519 57.7581 58.1563L57.759 43.4679H58.8329C60.4304 43.4679 61.7293 42.17 61.7293 40.5724ZM56.3751 42.0354H56.3251V42.0854V58.1571C56.3251 58.9627 55.6697 59.6181 54.8641 59.6181H48.8151C48.0095 59.6181 47.3541 58.9627 47.3541 58.1571V42.0854V42.0354H47.3041H44.8459C44.0403 42.0354 43.3849 41.38 43.3849 40.5744V29.4584C43.3849 26.5326 45.7657 24.1518 48.6916 24.1518H54.9904C57.9162 24.1518 60.2971 26.5325 60.2971 29.4584V40.5744C60.2971 41.38 59.6417 42.0354 58.8361 42.0354H56.3751Z" fill="#EA142E" stroke="#EA142E" stroke-width="0.1"/>
<path d="M99.839 19.3759C103.54 19.3759 106.552 16.3652 106.552 12.6629C106.552 8.96065 103.539 5.95 99.839 5.95C96.1377 5.95 93.126 8.96264 93.126 12.6629C93.126 16.3642 96.1377 19.3759 99.839 19.3759ZM99.839 7.38422C102.75 7.38422 105.119 9.75244 105.119 12.6647C105.119 15.5761 102.751 17.9434 99.839 17.9434C96.9267 17.9434 94.5585 15.5752 94.5585 12.6647C94.5604 9.75146 96.9287 7.38422 99.839 7.38422Z" fill="#EA142E" stroke="#EA142E" stroke-width="0.1"/>
<path d="M109.729 40.5724V40.5224H109.729V29.4565C109.729 25.7396 106.705 22.7156 102.989 22.7156H96.6899C92.973 22.7156 89.95 25.7399 89.95 29.4565V40.5724C89.95 42.17 91.2488 43.4679 92.8444 43.4679H93.9183V58.1563C93.9183 59.7539 95.2171 61.0507 96.8137 61.0507H102.863C104.46 61.0507 105.758 59.7519 105.758 58.1563L105.759 43.4679H106.833C108.43 43.4679 109.729 42.17 109.729 40.5724ZM104.375 42.0354H104.325V42.0854V58.1571C104.325 58.9627 103.67 59.6181 102.864 59.6181H96.8151C96.0095 59.6181 95.3541 58.9627 95.3541 58.1571V42.0854V42.0354H95.3041H92.8459C92.0403 42.0354 91.3849 41.38 91.3849 40.5744V29.4584C91.3849 26.5326 93.7657 24.1518 96.6916 24.1518H102.99C105.916 24.1518 108.297 26.5325 108.297 29.4584V40.5744C108.297 41.38 107.642 42.0354 106.836 42.0354H104.375Z" fill="#EA142E" stroke="#EA142E" stroke-width="0.1"/>
<path d="M29.9454 23.1644C33.3127 23.1644 36.0526 20.4254 36.0526 17.0572C36.0526 13.689 33.3118 10.95 29.9454 10.95C26.5781 10.95 23.8382 13.6908 23.8382 17.0572C23.8382 20.4245 26.5781 23.1644 29.9454 23.1644ZM29.9454 12.2629C32.5897 12.2629 34.7413 14.4138 34.7413 17.0588C34.7413 19.7031 32.5904 21.8531 29.9454 21.8531C27.3004 21.8531 25.1496 19.7022 25.1495 17.0588C25.1513 14.4129 27.3022 12.2629 29.9454 12.2629Z" fill="#EA142E" stroke="#EA142E" stroke-width="0.1"/>
<path d="M38.9403 42.4224V42.3724H38.9397V32.317C38.9397 28.9355 36.1892 26.1844 32.8079 26.1844H27.0817C23.7002 26.1844 20.95 28.9357 20.95 32.317V42.4224C20.95 43.8772 22.1328 45.0591 23.5858 45.0591H24.5575V58.4077C24.5575 59.8626 25.7403 61.0436 27.1943 61.0436H32.6933C34.1481 61.0436 35.3301 59.8608 35.3301 58.4077L35.3309 45.0591H36.3026C37.7574 45.0591 38.9403 43.8773 38.9403 42.4224ZM34.0683 43.7478H34.0183V43.7978V58.4084C34.0183 59.1383 33.4245 59.7321 32.6946 59.7321H27.1956C26.4657 59.7321 25.8719 59.1383 25.8719 58.4084V43.7978V43.7478H25.8219H23.5872C22.8573 43.7478 22.2636 43.154 22.2636 42.4241V32.3187C22.2636 29.6614 24.4259 27.4991 27.0832 27.4991H32.8095C35.4668 27.4991 37.6292 29.6614 37.6292 32.3187V42.4241C37.6292 43.154 37.0354 43.7478 36.3055 43.7478H34.0683Z" fill="#EA142E" stroke="#EA142E" stroke-width="0.1"/>
<path d="M121.945 23.1644C125.313 23.1644 128.053 20.4254 128.053 17.0572C128.053 13.689 125.312 10.95 121.945 10.95C118.578 10.95 115.838 13.6908 115.838 17.0572C115.838 20.4245 118.578 23.1644 121.945 23.1644ZM121.945 12.2629C124.59 12.2629 126.741 14.4138 126.741 17.0588C126.741 19.7031 124.59 21.8531 121.945 21.8531C119.3 21.8531 117.15 19.7022 117.15 17.0588C117.151 14.4129 119.302 12.2629 121.945 12.2629Z" fill="#EA142E" stroke="#EA142E" stroke-width="0.1"/>
<path d="M130.94 42.4224V42.3724H130.94V32.317C130.94 28.9355 128.189 26.1844 124.808 26.1844H119.082C115.7 26.1844 112.95 28.9357 112.95 32.317V42.4224C112.95 43.8772 114.133 45.0591 115.586 45.0591H116.558V58.4077C116.558 59.8626 117.74 61.0436 119.194 61.0436H124.693C126.148 61.0436 127.33 59.8608 127.33 58.4077L127.331 45.0591H128.303C129.757 45.0591 130.94 43.8773 130.94 42.4224ZM126.068 43.7478H126.018V43.7978V58.4084C126.018 59.1383 125.424 59.7321 124.695 59.7321H119.196C118.466 59.7321 117.872 59.1383 117.872 58.4084V43.7978V43.7478H117.822H115.587C114.857 43.7478 114.264 43.154 114.264 42.4241V32.3187C114.264 29.6614 116.426 27.4991 119.083 27.4991H124.809C127.467 27.4991 129.629 29.6614 129.629 32.3187V42.4241C129.629 43.154 129.035 43.7478 128.306 43.7478H126.068Z" fill="#EA142E" stroke="#EA142E" stroke-width="0.1"/>
<path d="M9.05193 26.9544C12.0857 26.9544 14.5541 24.4868 14.5541 21.4522C14.5541 18.4176 12.0849 15.95 9.05193 15.95C6.01819 15.95 3.54973 18.4193 3.54973 21.4522C3.54973 24.4859 6.01819 26.9544 9.05193 26.9544ZM9.05193 17.1418C11.4293 17.1418 13.3638 19.0756 13.3638 21.4536C13.3638 23.831 11.43 25.764 9.05193 25.764C6.6739 25.764 4.74011 23.8302 4.74009 21.4536C4.74165 19.0748 6.67549 17.1418 9.05193 17.1418Z" fill="#EA142E" stroke="#EA142E" stroke-width="0.1"/>
<path d="M17.1533 44.284V44.234H17.1528V35.1879C17.1528 32.1415 14.6748 29.6629 11.6285 29.6629H6.47425C3.42776 29.6629 0.95 32.1417 0.95 35.1879V44.284C0.95 45.5962 2.01685 46.6623 3.32755 46.6623H4.19719V58.6726C4.19719 59.9849 5.26408 61.0502 6.57555 61.0502H11.5253C12.8376 61.0502 13.9037 59.9833 13.9037 58.6726L13.9045 46.6623H14.7741C16.0864 46.6623 17.1533 45.5963 17.1533 44.284ZM12.763 45.472H12.713V45.522V58.6733C12.713 59.3275 12.1807 59.8597 11.5265 59.8597H6.57673C5.92252 59.8597 5.39028 59.3275 5.39028 58.6733V45.522V45.472H5.34028H3.32879C2.67458 45.472 2.14234 44.9398 2.14234 44.2856V35.1895C2.14234 32.8004 4.08642 30.8562 6.47562 30.8562H11.6299C14.019 30.8562 15.9632 32.8003 15.9632 35.1895V44.2856C15.9632 44.9398 15.4309 45.472 14.7767 45.472H12.763Z" fill="#EA142E" stroke="#EA142E" stroke-width="0.1"/>
<path d="M142.052 26.9544C145.086 26.9544 147.554 24.4868 147.554 21.4522C147.554 18.4176 145.085 15.95 142.052 15.95C139.018 15.95 136.55 18.4193 136.55 21.4522C136.55 24.4859 139.018 26.9544 142.052 26.9544ZM142.052 17.1418C144.429 17.1418 146.364 19.0756 146.364 21.4536C146.364 23.831 144.43 25.764 142.052 25.764C139.674 25.764 137.74 23.8302 137.74 21.4536C137.742 19.0748 139.675 17.1418 142.052 17.1418Z" fill="white" stroke="white" stroke-width="0.1"/>
<path d="M150.153 44.284V44.234H150.153V35.1879C150.153 32.1415 147.675 29.6629 144.629 29.6629H139.474C136.428 29.6629 133.95 32.1417 133.95 35.1879V44.284C133.95 45.5962 135.017 46.6623 136.328 46.6623H137.197V58.6726C137.197 59.9849 138.264 61.0502 139.576 61.0502H144.525C145.838 61.0502 146.904 59.9833 146.904 58.6726L146.905 46.6623H147.774C149.086 46.6623 150.153 45.5963 150.153 44.284ZM145.763 45.472H145.713V45.522V58.6733C145.713 59.3275 145.181 59.8597 144.527 59.8597H139.577C138.923 59.8597 138.39 59.3275 138.39 58.6733V45.522V45.472H138.34H136.329C135.675 45.472 135.142 44.9398 135.142 44.2856V35.1895C135.142 32.8004 137.086 30.8562 139.476 30.8562H144.63C147.019 30.8562 148.963 32.8003 148.963 35.1895V44.2856C148.963 44.9398 148.431 45.472 147.777 45.472H145.763Z" fill="white" stroke="white" stroke-width="0.1"/>
</svg>
