<svg width="69" height="69" viewBox="0 0 69 69" fill="none" xmlns="http://www.w3.org/2000/svg">
<path d="M48.1249 19.8073L45.3172 22.6149L38.5369 29.3952L30.3602 37.572L23.2962 44.636C22.9159 45.0163 22.5298 45.3933 22.1432 45.7708C21.3683 46.5275 20.5911 47.2864 19.8537 48.0784L19.8089 48.1232C19.1294 48.8028 20.1823 49.8631 20.8618 49.1761L45.6912 24.3467C46.0715 23.9665 46.4576 23.5895 46.8442 23.2119C47.6191 22.4553 48.3963 21.6964 49.1336 20.9043L49.1784 20.8595C49.8654 20.1874 48.8125 19.127 48.1256 19.8066L48.1249 19.8073Z" fill="#EA142E"/>
<path d="M48.1249 19.8073L45.3172 22.6149L38.5369 29.3952L30.3602 37.572L23.2962 44.636C22.9159 45.0163 22.5298 45.3933 22.1432 45.7708C21.3683 46.5275 20.5911 47.2864 19.8537 48.0784L19.8089 48.1232C19.1294 48.8028 20.1823 49.8631 20.8618 49.1761L45.6912 24.3467C46.0715 23.9665 46.4576 23.5895 46.8442 23.2119C47.6191 22.4553 48.3963 21.6964 49.1336 20.9043L49.1784 20.8595C49.8654 20.1874 48.8125 19.127 48.1256 19.8066L48.1249 19.8073Z" stroke="#EA142E"/>
<path d="M27.2322 27.2218C25.7909 28.6331 23.5583 29.0886 21.7063 28.2075C19.8096 27.3039 18.697 25.3325 18.8837 23.2417C19.0703 21.2031 20.631 19.4783 22.595 18.9928C24.5589 18.5074 26.7095 19.3214 27.8296 21.0091C29.1214 22.9655 28.8675 25.5567 27.2322 27.2219V27.2218ZM28.3255 28.2332C30.1739 26.3143 30.659 23.4632 29.547 21.039C28.4568 18.6494 25.8133 17.1261 23.1999 17.3875C20.5266 17.6563 18.2117 19.5529 17.562 22.189C16.9124 24.8099 17.9952 27.5729 20.2204 29.0813C22.7118 30.7696 26.1218 30.3764 28.2591 28.3003C28.2664 28.2934 28.2737 28.2862 28.281 28.2789C28.2823 28.2776 28.2837 28.2762 28.2851 28.2749C28.2993 28.2611 28.3127 28.2472 28.3255 28.2332Z" fill="#EA142E"/>
<path d="M27.2322 27.2218C25.7909 28.6331 23.5583 29.0886 21.7063 28.2075C19.8096 27.3039 18.697 25.3325 18.8837 23.2417C19.0703 21.2031 20.631 19.4783 22.595 18.9928C24.5589 18.5074 26.7095 19.3214 27.8296 21.0091C29.1214 22.9655 28.8675 25.5567 27.2322 27.2219V27.2218ZM28.3255 28.2332C30.1739 26.3143 30.659 23.4632 29.547 21.039C28.4568 18.6494 25.8133 17.1261 23.1999 17.3875C20.5266 17.6563 18.2117 19.5529 17.562 22.189C16.9124 24.8099 17.9952 27.5729 20.2204 29.0813C22.7118 30.7696 26.1218 30.3764 28.2591 28.3003C28.2664 28.2934 28.2737 28.2862 28.281 28.2789C28.2823 28.2776 28.2837 28.2762 28.2851 28.2749C28.2993 28.2611 28.3127 28.2472 28.3255 28.2332Z" stroke="#EA142E"/>
<path d="M48.708 48.6842C47.2668 50.0955 45.0341 50.551 43.1821 49.6699C41.2854 48.7663 40.1728 46.7949 40.3595 44.7041C40.5462 42.6655 42.1069 40.9407 44.0708 40.4553C46.0347 39.9698 48.1853 40.7838 49.3054 42.4715C50.6047 44.4279 50.3433 47.0191 48.708 48.6843V48.6842ZM49.8087 49.6879C51.651 47.7691 52.1334 44.9224 51.0229 42.5014C49.9326 40.1118 47.2892 38.5885 44.6757 38.8499C42.0024 39.1187 39.6876 41.0153 39.0379 43.6514C38.3882 46.2723 39.471 49.0353 41.6963 50.5437C44.1876 52.2319 47.5974 51.8388 49.7347 49.7629C49.7422 49.7558 49.7496 49.7486 49.757 49.7411C49.7583 49.7398 49.7596 49.7386 49.7609 49.7373C49.7779 49.721 49.7938 49.7046 49.8087 49.6879Z" fill="#EA142E"/>
<path d="M48.708 48.6842C47.2668 50.0955 45.0341 50.551 43.1821 49.6699C41.2854 48.7663 40.1728 46.7949 40.3595 44.7041C40.5462 42.6655 42.1069 40.9407 44.0708 40.4553C46.0347 39.9698 48.1853 40.7838 49.3054 42.4715C50.6047 44.4279 50.3433 47.0191 48.708 48.6843V48.6842ZM49.8087 49.6879C51.651 47.7691 52.1334 44.9224 51.0229 42.5014C49.9326 40.1118 47.2892 38.5885 44.6757 38.8499C42.0024 39.1187 39.6876 41.0153 39.0379 43.6514C38.3882 46.2723 39.471 49.0353 41.6963 50.5437C44.1876 52.2319 47.5974 51.8388 49.7347 49.7629C49.7422 49.7558 49.7496 49.7486 49.757 49.7411C49.7583 49.7398 49.7596 49.7386 49.7609 49.7373C49.7779 49.721 49.7938 49.7046 49.8087 49.6879Z" stroke="#EA142E"/>
<path d="M67.5034 34.4954C67.496 37.9677 66.9583 41.4176 65.8906 44.7256C64.8601 47.8992 63.3368 50.8937 61.4103 53.6117C59.5135 56.285 57.1987 58.6896 54.6076 60.6833C51.9642 62.7144 48.9997 64.3571 45.8709 65.4996C42.645 66.6795 39.2473 67.3514 35.8199 67.4784C32.3327 67.6128 28.8379 67.2096 25.4777 66.2538C22.2593 65.3428 19.1977 63.9314 16.405 62.102C13.6346 60.2874 11.148 58.0398 9.03465 55.486C6.93636 52.9546 5.20387 50.0722 3.96432 47.0255C2.67994 43.8668 1.87354 40.5139 1.61205 37.1089C1.34322 33.6142 1.61205 30.0897 2.44092 26.6845C3.23993 23.4063 4.53921 20.27 6.28658 17.3877C7.99654 14.565 10.1322 12.0112 12.604 9.81583C15.0906 7.60543 17.9133 5.776 20.945 4.40208C24.0141 3.00564 27.3296 2.08723 30.6749 1.70641C34.1473 1.31064 37.6793 1.44505 41.0993 2.14698C44.4148 2.81905 47.6109 3.99881 50.5679 5.6491C53.4726 7.26948 56.1087 9.31561 58.4086 11.72C60.6936 14.1171 62.6052 16.8427 64.0912 19.8072C65.6071 22.8464 66.6375 26.1246 67.1603 29.4773C67.3841 31.1334 67.5036 32.8118 67.5038 34.4902C67.5038 34.492 67.5038 34.4937 67.5038 34.4955L67.5034 34.4954ZM68.9973 34.5033C68.9974 34.5007 68.9974 34.498 68.9974 34.4954C68.9899 30.8962 68.4373 27.2895 67.3247 23.8694C66.2494 20.5465 64.6663 17.3878 62.6352 14.5427C60.6116 11.7051 58.1921 9.2035 55.4293 7.08282C52.6738 4.96951 49.6048 3.28946 46.349 2.09469C42.9738 0.855116 39.397 0.160661 35.8051 0.0263006C32.1909 -0.115584 28.5394 0.317524 25.0597 1.30322C21.7069 2.25156 18.496 3.72266 15.5911 5.63429C12.7013 7.53104 10.0952 9.86078 7.8923 12.5267C5.67453 15.2299 3.87487 18.2392 2.54573 21.48C1.19416 24.773 0.380264 28.2826 0.103896 31.8297C-0.179858 35.4663 0.118832 39.1626 0.985036 42.7096C1.81391 46.0997 3.16553 49.3779 4.98008 52.3573C6.76472 55.2995 8.99 57.9803 11.5662 60.2652C14.1574 62.5726 17.092 64.4917 20.2581 65.9254C23.5288 67.3964 26.9861 68.3522 30.548 68.7705C34.1696 69.1961 37.851 69.0244 41.428 68.3C44.8779 67.5981 48.2233 66.3511 51.2998 64.641C54.3016 62.9608 57.0646 60.8253 59.4391 58.3387C61.8211 55.8445 63.8373 52.9921 65.3757 49.9081C66.9588 46.7345 68.0565 43.3293 68.5867 39.8272C68.8555 38.065 68.9974 36.2877 68.9974 34.5104C68.9974 34.508 68.9974 34.5057 68.9973 34.5033Z" fill="#EA142E"/>
<path d="M67.5034 34.4954C67.496 37.9677 66.9583 41.4176 65.8906 44.7256C64.8601 47.8992 63.3368 50.8937 61.4103 53.6117C59.5135 56.285 57.1987 58.6896 54.6076 60.6833C51.9642 62.7144 48.9997 64.3571 45.8709 65.4996C42.645 66.6795 39.2473 67.3514 35.8199 67.4784C32.3327 67.6128 28.8379 67.2096 25.4777 66.2538C22.2593 65.3428 19.1977 63.9314 16.405 62.102C13.6346 60.2874 11.148 58.0398 9.03465 55.486C6.93636 52.9546 5.20387 50.0722 3.96432 47.0255C2.67994 43.8668 1.87354 40.5139 1.61205 37.1089C1.34322 33.6142 1.61205 30.0897 2.44092 26.6845C3.23993 23.4063 4.53921 20.27 6.28658 17.3877C7.99654 14.565 10.1322 12.0112 12.604 9.81583C15.0906 7.60543 17.9133 5.776 20.945 4.40208C24.0141 3.00564 27.3296 2.08723 30.6749 1.70641C34.1473 1.31064 37.6793 1.44505 41.0993 2.14698C44.4148 2.81905 47.6109 3.99881 50.5679 5.6491C53.4726 7.26948 56.1087 9.31561 58.4086 11.72C60.6936 14.1171 62.6052 16.8427 64.0912 19.8072C65.6071 22.8464 66.6375 26.1246 67.1603 29.4773C67.3841 31.1334 67.5036 32.8118 67.5038 34.4902C67.5038 34.492 67.5038 34.4937 67.5038 34.4955L67.5034 34.4954ZM68.9973 34.5033C68.9974 34.5007 68.9974 34.498 68.9974 34.4954C68.9899 30.8962 68.4373 27.2895 67.3247 23.8694C66.2494 20.5465 64.6663 17.3878 62.6352 14.5427C60.6116 11.7051 58.1921 9.2035 55.4293 7.08282C52.6738 4.96951 49.6048 3.28946 46.349 2.09469C42.9738 0.855116 39.397 0.160661 35.8051 0.0263006C32.1909 -0.115584 28.5394 0.317524 25.0597 1.30322C21.7069 2.25156 18.496 3.72266 15.5911 5.63429C12.7013 7.53104 10.0952 9.86078 7.8923 12.5267C5.67453 15.2299 3.87487 18.2392 2.54573 21.48C1.19416 24.773 0.380264 28.2826 0.103896 31.8297C-0.179858 35.4663 0.118832 39.1626 0.985036 42.7096C1.81391 46.0997 3.16553 49.3779 4.98008 52.3573C6.76472 55.2995 8.99 57.9803 11.5662 60.2652C14.1574 62.5726 17.092 64.4917 20.2581 65.9254C23.5288 67.3964 26.9861 68.3522 30.548 68.7705C34.1696 69.1961 37.851 69.0244 41.428 68.3C44.8779 67.5981 48.2233 66.3511 51.2998 64.641C54.3016 62.9608 57.0646 60.8253 59.4391 58.3387C61.8211 55.8445 63.8373 52.9921 65.3757 49.9081C66.9588 46.7345 68.0565 43.3293 68.5867 39.8272C68.8555 38.065 68.9974 36.2877 68.9974 34.5104C68.9974 34.508 68.9974 34.5057 68.9973 34.5033Z" stroke="#EA142E"/>
</svg>
