<svg width="78" height="73" viewBox="0 0 78 73" fill="none" xmlns="http://www.w3.org/2000/svg">
<path d="M34.1227 44.7778C24.7409 44.7778 17.1429 37.1797 17.1429 27.7981C17.1429 18.4165 24.741 10.8184 34.1227 10.8184C38.5423 10.8184 42.7288 12.5241 45.9078 15.6253C46.2177 15.9352 46.2177 16.4008 45.9078 16.788C45.5979 17.0979 45.1323 17.0979 44.745 16.788C41.8765 13.9969 38.0772 12.4463 34.0454 12.4463C25.5944 12.4463 18.6163 19.3468 18.6163 27.8754C18.6163 36.4043 25.5167 43.3045 34.0454 43.3045C42.4963 43.3045 49.4744 36.404 49.4744 27.8754C49.4744 26.79 49.3971 25.7045 49.1645 24.6964C49.0872 24.2313 49.3197 23.8435 49.7849 23.7662C50.25 23.6888 50.6377 23.9214 50.7151 24.3865C50.9476 25.5493 51.1029 26.7126 51.1029 27.8754C51.1023 37.1792 43.5042 44.7775 34.1231 44.7775L34.1227 44.7778Z" fill="#EA142E"/>
<path d="M34.1227 44.7778C24.7409 44.7778 17.1429 37.1797 17.1429 27.7981C17.1429 18.4165 24.741 10.8184 34.1227 10.8184C38.5423 10.8184 42.7288 12.5241 45.9078 15.6253C46.2177 15.9352 46.2177 16.4008 45.9078 16.788C45.5979 17.0979 45.1323 17.0979 44.745 16.788C41.8765 13.9969 38.0772 12.4463 34.0454 12.4463C25.5944 12.4463 18.6163 19.3468 18.6163 27.8754C18.6163 36.4043 25.5167 43.3045 34.0454 43.3045C42.4963 43.3045 49.4744 36.404 49.4744 27.8754C49.4744 26.79 49.3971 25.7045 49.1645 24.6964C49.0872 24.2313 49.3197 23.8435 49.7849 23.7662C50.25 23.6888 50.6377 23.9214 50.7151 24.3865C50.9476 25.5493 51.1029 26.7126 51.1029 27.8754C51.1023 37.1792 43.5042 44.7775 34.1231 44.7775L34.1227 44.7778Z" stroke="#EA142E"/>
<path d="M34.1226 28.5736C33.8127 28.5736 33.5796 28.4183 33.4249 28.1858C33.1924 27.798 33.3476 27.3329 33.7348 27.1004L58.4678 13.5321C58.8556 13.2995 59.3207 13.4547 59.5533 13.842C59.7858 14.2298 59.6306 14.6949 59.2434 14.9274L34.5103 28.4962C34.433 28.5736 34.2778 28.5736 34.1226 28.5736L34.1226 28.5736Z" fill="#EA142E"/>
<path d="M34.1226 28.5736C33.8127 28.5736 33.5796 28.4183 33.4249 28.1858C33.1924 27.798 33.3476 27.3329 33.7348 27.1004L58.4678 13.5321C58.8556 13.2995 59.3207 13.4547 59.5533 13.842C59.7858 14.2298 59.6306 14.6949 59.2434 14.9274L34.5103 28.4962C34.433 28.5736 34.2778 28.5736 34.1226 28.5736L34.1226 28.5736Z" stroke="#EA142E"/>
<path d="M65.9888 16.8658H65.7562L57.9255 14.7722L60.0191 6.94153C60.0964 6.55375 60.5621 6.24386 61.0272 6.39853C61.4149 6.47587 61.7248 6.94153 61.5702 7.40663L59.8644 13.6867L66.1445 15.3924C66.5322 15.4697 66.8421 15.9354 66.6875 16.4005C66.609 16.633 66.2991 16.8656 65.9887 16.8656L65.9888 16.8658Z" fill="#EA142E"/>
<path d="M65.9888 16.8658H65.7562L57.9255 14.7722L60.0191 6.94153C60.0964 6.55375 60.5621 6.24386 61.0272 6.39853C61.4149 6.47587 61.7248 6.94153 61.5702 7.40663L59.8644 13.6867L66.1445 15.3924C66.5322 15.4697 66.8421 15.9354 66.6875 16.4005C66.609 16.633 66.2991 16.8656 65.9887 16.8656L65.9888 16.8658Z" stroke="#EA142E"/>
<path d="M71.5711 13.687H71.3385L63.5078 11.5935L65.6008 3.76282C65.6781 3.37504 66.1438 3.06515 66.6089 3.21982C66.9967 3.29716 67.3066 3.76282 67.1519 4.22792L65.4461 10.508L71.7262 12.2137C72.114 12.291 72.4239 12.7567 72.2692 13.2218C72.2686 13.4543 71.9587 13.6869 71.571 13.6869L71.5711 13.687Z" fill="#EA142E"/>
<path d="M71.5711 13.687H71.3385L63.5078 11.5935L65.6008 3.76282C65.6781 3.37504 66.1438 3.06515 66.6089 3.21982C66.9967 3.29716 67.3066 3.76282 67.1519 4.22792L65.4461 10.508L71.7262 12.2137C72.114 12.291 72.4239 12.7567 72.2692 13.2218C72.2686 13.4543 71.9587 13.6869 71.571 13.6869L71.5711 13.687Z" stroke="#EA142E"/>
<path d="M77.231 10.5078H76.9984L69.1677 8.41431L71.2612 0.583619C71.3386 0.195843 71.8042 -0.114053 72.2693 0.0406248C72.6571 0.117963 72.967 0.583619 72.8123 1.04872L71.1066 7.32875L77.3866 9.03448C77.7744 9.11182 78.0843 9.57747 77.9296 10.0426C77.8512 10.2751 77.5413 10.5077 77.2309 10.5077L77.231 10.5078Z" fill="#EA142E"/>
<path d="M77.231 10.5078H76.9984L69.1677 8.41431L71.2612 0.583619C71.3386 0.195843 71.8042 -0.114053 72.2693 0.0406248C72.6571 0.117963 72.967 0.583619 72.8123 1.04872L71.1066 7.32875L77.3866 9.03448C77.7744 9.11182 78.0843 9.57747 77.9296 10.0426C77.8512 10.2751 77.5413 10.5077 77.2309 10.5077L77.231 10.5078Z" stroke="#EA142E"/>
<path d="M39.7825 30.3566H39.5499L32.9594 28.4182L34.4326 22.0603C34.51 21.5951 34.9756 21.3626 35.3628 21.4399C35.828 21.5173 36.0605 21.9829 35.9832 22.3702L34.8977 27.3323L40.0151 28.8055C40.4028 28.9607 40.7127 29.3485 40.5581 29.8136C40.4023 30.1235 40.0924 30.3566 39.7825 30.3566L39.7825 30.3566Z" fill="#EA142E"/>
<path d="M39.7825 30.3566H39.5499L32.9594 28.4182L34.4326 22.0603C34.51 21.5951 34.9756 21.3626 35.3628 21.4399C35.828 21.5173 36.0605 21.9829 35.9832 22.3702L34.8977 27.3323L40.0151 28.8055C40.4028 28.9607 40.7127 29.3485 40.5581 29.8136C40.4023 30.1235 40.0924 30.3566 39.7825 30.3566L39.7825 30.3566Z" stroke="#EA142E"/>
<path d="M34.1226 36.8691C29.1605 36.8691 25.0513 32.8372 25.0513 27.7977C25.0513 23.5333 28.0751 19.8118 32.2616 18.959C32.7267 18.8816 33.1144 19.1142 33.1918 19.5793C33.2691 20.0444 33.0366 20.4322 32.5715 20.5095C29.1599 21.2072 26.6013 24.3088 26.6013 27.7978C26.6013 31.907 29.9349 35.2412 34.0447 35.2412C36.2929 35.2412 38.3864 34.2331 39.7823 32.5273C40.0922 32.2174 40.5578 32.1395 40.8677 32.4499C41.1776 32.7598 41.2555 33.2255 40.9451 33.5354C39.3951 35.6283 36.8364 36.869 34.1226 36.869L34.1226 36.8691Z" fill="#EA142E"/>
<path d="M34.1226 36.8691C29.1605 36.8691 25.0513 32.8372 25.0513 27.7977C25.0513 23.5333 28.0751 19.8118 32.2616 18.959C32.7267 18.8816 33.1144 19.1142 33.1918 19.5793C33.2691 20.0444 33.0366 20.4322 32.5715 20.5095C29.1599 21.2072 26.6013 24.3088 26.6013 27.7978C26.6013 31.907 29.9349 35.2412 34.0447 35.2412C36.2929 35.2412 38.3864 34.2331 39.7823 32.5273C40.0922 32.2174 40.5578 32.1395 40.8677 32.4499C41.1776 32.7598 41.2555 33.2255 40.9451 33.5354C39.3951 35.6283 36.8364 36.869 34.1226 36.869L34.1226 36.8691Z" stroke="#EA142E"/>
<path d="M55.8318 72.4569C55.444 72.4569 55.1341 72.2243 55.0563 71.8365L52.7301 62.3001C51.4942 55.9661 53.9522 49.9401 56.347 44.0689L56.3742 44.0023C56.4357 43.8536 56.4969 43.7059 56.5577 43.5591C57.4162 41.4871 58.1983 39.5994 58.7776 37.6444C60.7159 31.3643 60.9485 25.1615 59.3206 19.7342C59.1653 19.3465 59.3979 18.8813 59.8636 18.7261C60.2513 18.5709 60.7164 18.8035 60.8717 19.2691C62.5774 25.0067 62.4222 31.5193 60.3287 38.1096C59.631 40.2806 58.7781 42.3741 57.8473 44.6223L57.8213 44.6856C55.5033 50.3254 53.1222 56.119 54.2805 61.9897L56.6067 71.4487C56.684 71.9138 56.4514 72.3016 55.9863 72.3789C55.909 72.4568 55.8317 72.4568 55.8317 72.4568L55.8318 72.4569Z" fill="#EA142E"/>
<path d="M55.8318 72.4569C55.444 72.4569 55.1341 72.2243 55.0563 71.8365L52.7301 62.3001C51.4942 55.9661 53.9522 49.9401 56.347 44.0689L56.3742 44.0023C56.4357 43.8536 56.4969 43.7059 56.5577 43.5591C57.4162 41.4871 58.1983 39.5994 58.7776 37.6444C60.7159 31.3643 60.9485 25.1615 59.3206 19.7342C59.1653 19.3465 59.3979 18.8813 59.8636 18.7261C60.2513 18.5709 60.7164 18.8035 60.8717 19.2691C62.5774 25.0067 62.4222 31.5193 60.3287 38.1096C59.631 40.2806 58.7781 42.3741 57.8473 44.6223L57.8213 44.6856C55.5033 50.3254 53.1222 56.119 54.2805 61.9897L56.6067 71.4487C56.684 71.9138 56.4514 72.3016 55.9863 72.3789C55.909 72.4568 55.8317 72.4568 55.8317 72.4568L55.8318 72.4569Z" stroke="#EA142E"/>
<path d="M21.95 72.9997C21.8726 72.9997 21.7947 72.9997 21.7174 72.9223C21.3296 72.7671 21.0971 72.302 21.1744 71.9142C21.7947 69.8985 21.8721 67.1847 21.3296 64.4708C21.0971 63.2301 20.1669 62.2999 18.9262 61.9895C17.6083 61.6796 16.2123 61.5243 14.817 61.5243C14.5454 61.5243 14.2933 61.5437 14.0413 61.563C13.7894 61.5824 13.5376 61.6017 13.2665 61.6017L13.259 61.6022C12.2534 61.6794 11.2482 61.7565 10.2427 61.6017C8.14916 61.3691 6.52125 60.5162 5.59044 59.1203C5.04744 58.1901 4.58234 56.639 5.5131 54.3134C6.03818 53.1137 5.62006 52.3494 5.17132 51.529C5.15601 51.501 5.14067 51.473 5.12532 51.4449L4.9701 51.2123C3.7351 48.9744 4.49797 47.7348 5.11684 46.7292L5.12532 46.7154C5.43522 46.2503 5.66832 45.7852 5.66832 45.2421C5.66832 44.777 5.28054 44.3892 4.73809 44.3119C3.34277 44.1567 2.02416 43.5363 1.17129 42.6834C0.318402 41.8305 0.163198 40.4352 0.783517 39.427L1.79107 38.0317C5.82293 31.5191 5.82293 31.5191 6.83044 24.3861C6.99207 23.4163 7.15371 22.2589 7.34149 20.9143C7.42388 20.3243 7.51131 19.6982 7.60599 19.0361C8.30366 14.2292 11.25 9.65438 15.6691 6.39813C19.9336 3.29709 27.5317 0.118098 39.7044 2.13368C44.7437 2.98657 48.6983 4.38186 51.8773 6.55334C53.4278 7.56143 54.8237 8.87946 56.0638 10.2748C56.3737 10.5847 56.2964 11.1277 55.9865 11.4376C55.5214 11.6706 55.0557 11.5928 54.7458 11.2829C53.5831 9.96488 52.2645 8.80154 50.8692 7.79403C47.9228 5.77831 44.124 4.38244 39.3944 3.60753C27.7645 1.6692 20.5539 4.69296 16.5997 7.63938C12.5679 10.5858 9.85452 14.7724 9.1563 19.1919C9.0222 20.0979 8.90248 20.9457 8.79096 21.7354C8.64477 22.7707 8.51268 23.7061 8.38075 24.5418C7.38133 31.9241 7.29717 32.0597 3.20939 38.6458L3.10879 38.8079L2.17856 40.2812C1.946 40.7463 1.946 41.2893 2.33378 41.5992C2.95411 42.2195 3.96225 42.6846 4.96976 42.7619C6.28775 42.9172 7.29589 44.0026 7.29589 45.3205C7.29589 46.1008 6.96864 46.7179 6.67992 47.2623C6.62444 47.3669 6.57038 47.4688 6.52034 47.5687C5.97734 48.4989 5.66745 49.042 6.443 50.4373L6.59822 50.6698C6.61547 50.7019 6.63296 50.7342 6.65062 50.7669C7.18882 51.7623 7.88911 53.0576 7.06333 54.9343C6.52034 56.2523 6.52034 57.4156 7.06333 58.2679C7.68366 59.1982 8.84645 59.8185 10.4749 59.9737C11.0921 60.025 11.6753 60.0082 12.2697 59.9911C12.5712 59.9824 12.8756 59.9737 13.1889 59.9737C13.4603 59.9737 13.7317 59.9543 14.0031 59.935C14.2744 59.9157 14.5458 59.8963 14.8173 59.8963C16.2906 59.8963 17.8411 60.0515 19.3142 60.4393C21.0974 60.9044 22.4932 62.3776 22.881 64.1608C23.5014 67.1845 23.424 70.1309 22.6485 72.3791C22.57 72.8448 22.2596 73 21.9497 73L21.95 72.9997Z" fill="#EA142E"/>
<path d="M21.95 72.9997C21.8726 72.9997 21.7947 72.9997 21.7174 72.9223C21.3296 72.7671 21.0971 72.302 21.1744 71.9142C21.7947 69.8985 21.8721 67.1847 21.3296 64.4708C21.0971 63.2301 20.1669 62.2999 18.9262 61.9895C17.6083 61.6796 16.2123 61.5243 14.817 61.5243C14.5454 61.5243 14.2933 61.5437 14.0413 61.563C13.7894 61.5824 13.5376 61.6017 13.2665 61.6017L13.259 61.6022C12.2534 61.6794 11.2482 61.7565 10.2427 61.6017C8.14916 61.3691 6.52125 60.5162 5.59044 59.1203C5.04744 58.1901 4.58234 56.639 5.5131 54.3134C6.03818 53.1137 5.62006 52.3494 5.17132 51.529C5.15601 51.501 5.14067 51.473 5.12532 51.4449L4.9701 51.2123C3.7351 48.9744 4.49797 47.7348 5.11684 46.7292L5.12532 46.7154C5.43522 46.2503 5.66832 45.7852 5.66832 45.2421C5.66832 44.777 5.28054 44.3892 4.73809 44.3119C3.34277 44.1567 2.02416 43.5363 1.17129 42.6834C0.318402 41.8305 0.163198 40.4352 0.783517 39.427L1.79107 38.0317C5.82293 31.5191 5.82293 31.5191 6.83044 24.3861C6.99207 23.4163 7.15371 22.2589 7.34149 20.9143C7.42388 20.3243 7.51131 19.6982 7.60599 19.0361C8.30366 14.2292 11.25 9.65438 15.6691 6.39813C19.9336 3.29709 27.5317 0.118098 39.7044 2.13368C44.7437 2.98657 48.6983 4.38186 51.8773 6.55334C53.4278 7.56143 54.8237 8.87946 56.0638 10.2748C56.3737 10.5847 56.2964 11.1277 55.9865 11.4376C55.5214 11.6706 55.0557 11.5928 54.7458 11.2829C53.5831 9.96488 52.2645 8.80154 50.8692 7.79403C47.9228 5.77831 44.124 4.38244 39.3944 3.60753C27.7645 1.6692 20.5539 4.69296 16.5997 7.63938C12.5679 10.5858 9.85452 14.7724 9.1563 19.1919C9.0222 20.0979 8.90248 20.9457 8.79096 21.7354C8.64477 22.7707 8.51268 23.7061 8.38075 24.5418C7.38133 31.9241 7.29717 32.0597 3.20939 38.6458L3.10879 38.8079L2.17856 40.2812C1.946 40.7463 1.946 41.2893 2.33378 41.5992C2.95411 42.2195 3.96225 42.6846 4.96976 42.7619C6.28775 42.9172 7.29589 44.0026 7.29589 45.3205C7.29589 46.1008 6.96864 46.7179 6.67992 47.2623C6.62444 47.3669 6.57038 47.4688 6.52034 47.5687C5.97734 48.4989 5.66745 49.042 6.443 50.4373L6.59822 50.6698C6.61547 50.7019 6.63296 50.7342 6.65062 50.7669C7.18882 51.7623 7.88911 53.0576 7.06333 54.9343C6.52034 56.2523 6.52034 57.4156 7.06333 58.2679C7.68366 59.1982 8.84645 59.8185 10.4749 59.9737C11.0921 60.025 11.6753 60.0082 12.2697 59.9911C12.5712 59.9824 12.8756 59.9737 13.1889 59.9737C13.4603 59.9737 13.7317 59.9543 14.0031 59.935C14.2744 59.9157 14.5458 59.8963 14.8173 59.8963C16.2906 59.8963 17.8411 60.0515 19.3142 60.4393C21.0974 60.9044 22.4932 62.3776 22.881 64.1608C23.5014 67.1845 23.424 70.1309 22.6485 72.3791C22.57 72.8448 22.2596 73 21.9497 73L21.95 72.9997Z" stroke="#EA142E"/>
</svg>
